<?xml version="1.0" encoding="iso-8859-1"?>
<!-- Generator: Adobe Illustrator 19.0.0, SVG Export Plug-In . SVG Version: 6.00 Build 0)  -->
<svg version="1.1" id="레이어_1" xmlns="http://www.w3.org/2000/svg" xmlns:xlink="http://www.w3.org/1999/xlink" x="0px" y="0px" viewBox="0 0 762.968 107.46" enable-background="new 0 0 762.968 107.46" xml:space="preserve">
<path fill="#139BA4" d="M147.866,94.028c0,7.418-6.014,13.433-13.433,13.433c-7.418,0-13.432-6.015-13.432-13.433
	c0-7.419,6.014-13.433,13.432-13.433C141.852,80.595,147.866,86.609,147.866,94.028 M303.215,5.974l-21.523,80.327
	c-0.441,1.649-2.671,1.649-3.114,0L258.121,9.957C256.438,3.672,251.652,0,245.146,0h-11.878c-6.505,0-11.291,3.672-12.975,9.957
	l-20.457,76.345c-0.441,1.649-2.672,1.649-3.114,0L175.199,5.974C174.189,2.203,171.316,0,167.414,0h-14.174l26.125,97.503
	c1.684,6.284,6.47,9.957,12.975,9.957h11.879c6.505,0,11.292-3.673,12.975-9.957l20.457-76.345c0.442-1.648,2.673-1.648,3.114,0
	l20.457,76.345c1.684,6.284,6.47,9.957,12.975,9.957h11.879c6.505,0,11.291-3.673,12.975-9.957L325.176,0H311
	C307.097,0,304.226,2.203,303.215,5.974 M96.714,21.492v64.476c0,12.7-8.791,21.492-21.492,21.492H28.355
	c-10.407,0-18.065-5.876-20.759-15.93L0.651,65.615C0.217,63.994,0,62.412,0,60.877c0-7.697,5.153-13.852,13.422-15.309
	l63.413-11.181V21.492c0-2.541-1.759-4.298-4.298-4.298h-61.79l3.006-11.22C14.764,2.203,17.635,0,21.539,0h53.684
	C87.923,0,96.714,8.791,96.714,21.492 M76.835,53.156l-53.029,9.35c-1.983,0.35-3.078,2.057-2.555,4.01l5.511,20.565
	c0.539,2.011,2.071,3.186,4.152,3.186h41.623c2.54,0,4.298-1.758,4.298-4.298V53.156z M442.889,45.386
	c0.759,2.829,1.137,5.586,1.137,8.343c0,2.759-0.378,5.517-1.137,8.344l-7.893,29.458c-2.694,10.054-10.353,15.93-20.761,15.93
	h-46.805c-10.409,0-18.067-5.876-20.761-15.93l-7.893-29.458c-0.758-2.827-1.136-5.585-1.136-8.344c0-2.757,0.378-5.514,1.136-8.343
	l7.893-29.457C349.364,5.876,357.022,0,367.431,0h46.805c10.408,0,18.066,5.876,20.761,15.93L442.889,45.386z M423.275,48.167
	l-7.445-27.787c-0.539-2.011-2.07-3.186-4.152-3.186h-41.688c-2.082,0-3.614,1.175-4.152,3.186l-7.446,27.787
	c-1.011,3.773-1.011,7.354,0,11.126l7.446,27.788c0.538,2.011,2.07,3.186,4.152,3.186h41.688c2.082,0,3.613-1.175,4.152-3.186
	l7.445-27.788C424.287,55.521,424.287,51.94,423.275,48.167 M544.394,17.194l-3.007-11.22C540.377,2.203,537.505,0,533.603,0H487.44
	c-12.7,0-21.491,8.791-21.491,21.492v85.968h12.68c4.128,0,6.984-2.857,6.984-6.985V21.492c0-2.718,1.581-4.298,4.299-4.298H544.394
	z M659.376,0h-17.124c-3.697,0-6.526,1.633-8.375,4.836l-22.025,38.148c-0.821,1.423-2.079,2.149-3.723,2.149h-26.661V6.985
	c0-4.128-2.857-6.985-6.985-6.985h-12.895v107.46h12.895c4.128,0,6.985-2.857,6.985-6.985V62.327h26.661
	c1.644,0,2.901,0.727,3.723,2.149l22.025,38.148c1.849,3.201,4.678,4.836,8.375,4.836h17.124l-29.78-51.581
	c-0.795-1.377-0.795-2.922,0-4.299L659.376,0z M749.547,50.237l-55.246-9.742c-1.981-0.35-3.077-2.057-2.555-4.009l4.316-16.105
	c0.539-2.012,2.07-3.187,4.152-3.187h55.338l-3.22-12.017C751.458,1.91,748.969,0,745.587,0h-47.931
	c-10.408,0-18.066,5.876-20.761,15.93l-5.692,21.248c-0.439,1.638-0.651,3.241-0.651,4.784c0,7.653,5.169,13.808,13.422,15.262
	l55.244,9.741c1.984,0.35,3.077,2.057,2.555,4.01l-4.315,16.106c-0.539,2.011-2.07,3.186-4.152,3.186h-57.917l3.22,12.017
	c0.876,3.269,3.364,5.178,6.746,5.178h50.51c10.409,0,18.066-5.876,20.76-15.93l5.693-21.249c0.438-1.638,0.651-3.24,0.651-4.783
	C762.968,57.845,757.799,51.692,749.547,50.237"/>
</svg>
