<?xml version="1.0" standalone="no"?>
<!DOCTYPE svg PUBLIC "-//W3C//DTD SVG 1.1//EN" "http://www.w3.org/Graphics/SVG/1.1/DTD/svg11.dtd" >
<svg xmlns="http://www.w3.org/2000/svg">
<metadata>Generated by IcoMoon</metadata>
<defs>
<font id="info-icon" horiz-adv-x="1024">
<font-face units-per-em="1024" ascent="960" descent="-64" />
<missing-glyph horiz-adv-x="1024" />
<glyph unicode="&#x20;" horiz-adv-x="512" d="" />
<glyph unicode="&#xe900;" glyph-name="back-arrow-circular-symbol" d="M512-63.977c-282.33 0-512 229.67-512 511.977s229.67 511.977 512 511.977 512-229.67 512-511.977-229.716-511.977-512-511.977zM512 925.256c-263.164 0-477.279-214.091-477.279-477.256 0-263.141 214.115-477.256 477.279-477.256s477.279 214.115 477.279 477.256c0 263.164-214.115 477.256-477.279 477.256zM570.98 268.26c-4.444 0-8.889 1.667-12.268 5.092l-169.625 169.764c-6.759 6.782-6.759 17.777 0 24.56l169.625 169.741c6.782 6.782 17.777 6.782 24.56 0s6.782-17.777 0-24.56l-157.357-157.473 157.357-157.519c6.759-6.782 6.759-17.8 0-24.56-3.403-3.38-7.847-5.046-12.291-5.046z" />
<glyph unicode="&#xe901;" glyph-name="bug" horiz-adv-x="911" d="M910.222 672.847h-159.831c-25.585 44.247-60.802 82.474-103.544 111.37l92.708 92.708-80.367 80.367-123.41-123.41c-26.187 6.321-52.976 9.632-80.668 9.632-27.993 0-54.481-3.311-80.066-9.632l-124.012 123.41-80.367-80.066 92.106-92.708c-42.14-28.896-77.357-67.123-102.942-111.37h-159.831v-113.778h118.895c-2.709-18.662-5.117-37.625-5.117-56.889v-56.889h-113.778v-113.778h113.778v-56.889c0-19.264 2.408-38.227 5.117-56.889h-118.895v-113.778h159.831c59.297-101.738 168.861-170.667 295.28-170.667s235.984 68.929 295.28 170.667h159.831v113.778h-118.895c2.709 18.662 5.117 37.625 5.117 56.889v56.889h113.778v113.778h-113.778v56.889c0 19.264-2.408 38.227-5.117 56.889h118.895v113.477zM568.889 218.036h-227.556v113.778h227.556v-113.778zM568.889 445.592h-227.556v113.778h227.556v-113.778z" />
<glyph unicode="&#xe902;" glyph-name="cancel" d="M463.056 451.424l-453.248-453.248c-12.592-12.592-12.592-32.992 0-45.584 6.288-6.304 14.544-9.44 22.784-9.44 8.256 0 16.496 3.136 22.784 9.44l456.656 456.656 456.656-456.656c6.304-6.304 14.544-9.44 22.784-9.44s16.496 3.136 22.784 9.44c12.592 12.592 12.592 32.992 0 45.584l-453.232 453.248 453.536 453.568c12.592 12.592 12.592 32.992 0 45.584-12.592 12.576-32.992 12.576-45.568 0l-456.944-456.976-456.992 456.96c-12.592 12.576-32.976 12.576-45.568 0-12.592-12.592-12.592-32.992 0-45.584l453.568-453.552z" />
<glyph unicode="&#xe903;" glyph-name="caret-down" d="M1004.992 717.007c-12.658 12.669-27.663 18.998-45 18.998h-895.987c-17.344 0-32.339-6.329-45.007-18.998-12.669-12.683-18.998-27.677-18.998-45.011 0-17.33 6.329-32.325 18.998-44.997l447.995-447.995c12.683-12.669 27.677-19.012 45.007-19.012s32.339 6.343 44.997 19.012l447.995 447.999c12.655 12.669 19.008 27.663 19.008 44.997 0 17.33-6.354 32.325-19.008 45.007z" />
<glyph unicode="&#xe904;" glyph-name="delete" horiz-adv-x="854" d="M42.742 703.248l127.925-767.85h512l127.925 767.85h-767.85zM853.333 873.613v-85.183h-853.333v85.183h243.509c38.528 0 69.531 46.956 69.531 85.183h226.653c0-38.528 31.003-85.183 69.531-85.183h244.111z" />
<glyph unicode="&#xe905;" glyph-name="download_log" horiz-adv-x="1529" d="M1230.778 575.213c-43.154 219.814-236.446 384.787-468.397 384.787-184.302 0-343.881-104.288-423.895-257.573-191.494-20.228-340.284-182.504-340.284-379.392 0-210.824 171.266-382.090 382.090-382.090h828.46c175.761 0 318.708 142.497 318.708 318.708-0.45 167.67-130.809 303.874-296.681 315.561zM1081.089 386.416l-318.708-318.708-318.708 318.708h191.045v254.876h255.326v-254.876h191.045z" />
<glyph unicode="&#xe906;" glyph-name="download" horiz-adv-x="768" d="M554.742 488.033h213.409l-384.075-426.516-384.075 426.516h213.409v469.258h341.333v-469.258zM597.183 18.775h-426.516v-85.183h426.516v85.183z" />
<glyph unicode="&#xe907;" glyph-name="error" d="M874.21 810.21c-199.713 199.713-524.688 199.733-724.421 0s-199.713-524.688 0-724.421 524.688-199.733 724.421 0c199.713 199.733 199.713 524.707 0 724.421zM713.998 246.002c-15.387-15.387-40.329-15.387-55.716 0l-146.283 146.283-153.237-153.237c-15.387-15.387-40.329-15.387-55.716 0s-15.387 40.329 0 55.716l153.237 153.237-146.283 146.283c-15.387 15.387-15.387 40.348 0 55.716 15.387 15.387 40.329 15.387 55.716 0l146.283-146.283 139.309 139.309c15.387 15.387 40.329 15.387 55.716 0s15.387-40.329 0-55.716l-139.309-139.309 146.283-146.283c15.387-15.387 15.387-40.329 0-55.716z" />
<glyph unicode="&#xe908;" glyph-name="facebook-logo-button" d="M512 960c-282.752 0-512-229.248-512-512s229.248-512 512-512 512 229.248 512 512c0 282.815-229.248 512-512 512zM644.352 448.065l-83.905-0.063-0.063-307.199h-115.137v307.197h-76.799v105.856l76.799 0.063-0.128 62.336c0 86.399 23.424 138.943 125.12 138.943h84.736v-105.92h-52.992c-39.615 0-41.535-14.783-41.535-42.367l-0.128-52.992h95.231l-11.198-105.854z" />
<glyph unicode="&#xe909;" d="M512 137.971c-55.685 0-100.835-45.15-100.835-100.835s45.15-100.835 100.835-100.835 100.835 45.15 100.835 100.835c0 55.384-45.15 100.835-100.835 100.835zM512-34.201c-39.431 0-71.337 31.906-71.337 71.337s31.906 71.337 71.337 71.337c39.431 0 71.337-31.906 71.337-71.337s-32.207-71.337-71.337-71.337z" />
<glyph unicode="&#xe90a;" d="M922.864 548.835c-55.685 0-100.835-45.15-100.835-100.835s45.15-100.835 100.835-100.835 100.835 45.15 100.835 100.835-45.15 100.835-100.835 100.835zM922.864 376.663c-39.431 0-71.337 31.906-71.337 71.337s31.906 71.337 71.337 71.337c39.431 0 71.337-31.906 71.337-71.337 0-39.13-31.906-71.337-71.337-71.337z" />
<glyph unicode="&#xe90b;" d="M100.835 548.835c-55.685 0-100.835-45.15-100.835-100.835s45.15-100.835 100.835-100.835c55.685 0 100.835 45.15 100.835 100.835s-45.15 100.835-100.835 100.835zM100.835 376.663c-39.431 0-71.337 31.906-71.337 71.337s31.906 71.337 71.337 71.337c39.431 0 71.337-31.906 71.337-71.337 0-39.13-31.906-71.337-71.337-71.337z" />
<glyph unicode="&#xe90c;" d="M873.801 810.102c-39.431 39.431-103.243 39.431-142.674 0s-39.431-103.243 0-142.674c19.565-19.565 45.451-29.498 71.337-29.498s51.772 9.933 71.337 29.498c39.431 39.431 39.431 103.243 0 142.674zM853.032 688.198c-27.692-27.692-73.143-27.692-100.835 0s-27.692 73.143 0 100.835c13.846 13.846 32.207 20.769 50.568 20.769s36.421-6.923 50.568-20.769c27.391-27.692 27.391-72.842-0.301-100.835z" />
<glyph unicode="&#xe90d;" d="M292.571 810.102c-39.431 39.431-103.243 39.431-142.674 0s-39.431-103.243 0-142.674c19.565-19.565 45.451-29.498 71.337-29.498s51.772 9.933 71.337 29.498c39.431 39.431 39.431 103.243 0 142.674zM271.802 688.198c-27.692-27.692-73.143-27.692-100.835 0s-27.692 73.143 0 100.835c27.692 27.692 73.143 27.692 100.835 0s27.692-72.842 0-100.835z" />
<glyph unicode="&#xe90e;" d="M555.645 603.617l-8.127-28.294c47.257-13.244 83.076-51.471 93.31-99.33l28.896 6.321c-12.642 58.394-56.287 105.049-114.079 121.303z" />
<glyph unicode="&#xe90f;" d="M673.336 451.010l-29.498-0.602c0-0.903 0-1.505 0-2.408 0-7.826-0.602-15.351-2.107-22.876l29.197-5.117c1.505 9.331 2.408 18.662 2.408 27.993 0 0.903 0 2.107 0 3.010z" />
<glyph unicode="&#xe910;" d="M390.396 396.529l-27.090-11.739c14.448-33.712 40.033-61.705 72.541-79.163l13.846 25.886c-26.488 14.448-47.558 37.324-59.297 65.016z" />
<glyph unicode="&#xe911;" d="M873.801 228.872c-29.799 29.799-73.444 37.023-109.865 21.973-7.525-3.010-14.749-7.224-21.371-12.040l-70.434 70.434c17.157 19.866 30.702 42.742 39.732 67.725 8.127 22.274 12.341 46.354 12.341 71.337 0 84.581-49.665 157.724-121.303 191.737-23.478 11.137-49.063 18.060-76.153 19.866v99.33c8.428 1.204 16.254 3.612 23.779 6.622 36.421 15.050 62.307 51.17 62.307 93.31 0 55.685-45.15 100.835-100.835 100.835s-100.835-45.15-100.835-100.835c0-50.568 37.324-92.708 86.086-99.932v-99.631c-110.166-7.525-197.456-99.631-197.456-211.603 0-53.277 19.565-102.039 52.073-139.062l-70.434-70.434c-39.431 29.197-95.718 26.187-131.537-9.632-39.431-39.431-39.431-103.243 0-142.674 19.565-19.565 45.451-29.498 71.337-29.498s51.772 9.933 71.337 29.498c35.819 35.819 39.13 92.106 9.632 131.537l70.434 70.434c37.324-32.508 86.086-52.073 139.062-52.073 53.277 0 102.039 19.565 139.062 52.073l70.434-70.434c-29.197-39.431-26.187-95.718 9.632-131.537 19.565-19.565 45.451-29.498 71.337-29.498s51.772 9.933 71.337 29.498c39.732 39.13 39.732 103.243 0.301 142.674zM271.802 106.968c-27.692-27.692-73.143-27.692-100.835 0s-27.692 73.143 0 100.835c13.846 13.846 32.207 20.769 50.568 20.769s36.421-6.923 50.568-20.769c27.391-27.692 27.391-73.143-0.301-100.835zM440.663 859.165c0 39.431 31.906 71.337 71.337 71.337s71.337-31.906 71.337-71.337c0-39.431-31.906-71.337-71.337-71.337s-71.337 31.906-71.337 71.337zM512 265.293c-100.835 0-182.707 81.872-182.707 182.707s81.872 182.707 182.707 182.707c100.835 0 182.707-81.872 182.707-182.707 0-100.534-82.173-182.707-182.707-182.707zM853.032 106.968c-27.692-27.692-73.143-27.692-100.835 0s-27.692 73.143 0 100.835c27.692 27.692 73.143 27.692 100.835 0s27.692-73.143 0-100.835z" />
<glyph unicode="&#xe912;" d="M497.251 875.419h29.498v-32.508h-29.498v32.508z" />
<glyph unicode="&#xe913;" d="M497.251 53.39h29.498v-32.508h-29.498v32.508z" />
<glyph unicode="&#xe914;" d="M206.486 755.019h29.498v-32.508h-29.498v32.508z" />
<glyph unicode="&#xe915;" d="M206.486 173.79h29.498v-32.508h-29.498v32.508z" />
<glyph unicode="&#xe916;" d="M86.086 464.254h29.498v-32.508h-29.498v32.508z" />
<glyph unicode="&#xe917;" d="M787.715 755.019h29.498v-32.508h-29.498v32.508z" />
<glyph unicode="&#xe918;" d="M787.715 173.79h29.498v-32.508h-29.498v32.508z" />
<glyph unicode="&#xe919;" d="M908.115 464.254h29.498v-32.508h-29.498v32.508z" />
<glyph unicode="&#xe91a;" d="M311.534 822.443c-94.514 0-171.57-77.056-171.57-171.57s77.056-171.57 171.57-171.57c94.514 0 171.57 77.056 171.57 171.57s-77.056 171.57-171.57 171.57zM311.534 509.103c-78.26 0-142.072 63.812-142.072 142.072s63.812 142.072 142.072 142.072c78.26 0 142.072-63.812 142.072-142.072 0-78.561-63.812-142.072-142.072-142.072z" />
<glyph unicode="&#xe91b;" d="M620.661 594.587v112.574h-65.618c-6.321 27.090-16.856 52.374-31.605 76.153l46.354 46.354-79.464 79.464-46.354-46.354c-23.478 14.749-49.063 25.284-76.153 31.605v65.618h-112.574v-65.618c-27.090-6.321-52.374-16.856-76.153-31.605l-46.354 46.354-79.464-79.464 46.354-46.354c-14.749-23.779-25.284-49.063-31.304-76.153h-65.919v-112.574h65.618c6.321-27.090 16.856-52.374 31.605-76.153l-46.354-46.354 79.464-79.464 46.655 46.655c23.478-14.749 49.063-25.284 76.153-31.605v-65.618h112.574v65.618c27.090 6.321 52.374 16.856 76.153 31.605l46.354-46.354 79.464 79.464-46.354 46.354c14.749 23.478 25.284 49.063 31.605 76.153h65.317zM528.254 612.045c-5.719-31.304-17.759-60.501-36.12-86.989l-7.224-10.234 42.742-42.742-37.625-37.625-42.742 42.742-10.234-6.923c-26.187-18.361-55.384-30.401-86.989-36.12l-12.040-2.107v-60.501h-53.277v60.501l-12.040 2.107c-31.304 5.719-60.501 17.759-86.989 36.12l-10.234 6.923-42.742-42.742-37.625 37.625 42.742 42.742-7.224 10.234c-18.361 26.187-30.401 55.384-36.12 86.989l-2.107 12.040h-60.501v53.578h60.501l2.107 12.040c5.719 31.304 17.759 60.501 36.12 86.989l7.224 10.234-42.742 42.742 37.625 37.625 42.742-42.742 10.234 6.923c26.187 18.361 55.384 30.401 86.989 36.12l12.040 2.107v60.802h53.277v-60.501l12.040-2.107c31.304-5.719 60.501-17.759 86.989-36.12l10.234-6.923 42.742 42.742 37.625-37.625-42.742-42.742 6.923-10.234c18.361-26.187 30.401-55.384 36.12-86.989l2.107-12.040h60.501v-53.277h-60.501l-1.806-12.642z" />
<glyph unicode="&#xe91c;" d="M817.213 588.567c-49.665 0-90.3-40.635-90.3-90.3s40.635-90.3 90.3-90.3c49.665 0 90.3 40.635 90.3 90.3s-40.635 90.3-90.3 90.3zM817.213 437.465c-33.411 0-60.802 27.391-60.802 60.802s27.391 60.802 60.802 60.802 60.802-27.391 60.802-60.802c0-33.712-27.391-60.802-60.802-60.802z" />
<glyph unicode="&#xe91d;" d="M977.947 539.504c-3.913 15.050-9.933 29.498-17.759 42.742l30.702 30.702-58.695 58.695-30.702-30.702c-13.545 7.826-27.692 13.846-42.742 17.759v43.645h-82.775v-43.344c-15.050-3.913-29.498-9.933-42.742-17.759l-30.702 30.702-58.695-58.695 30.702-30.702c-7.826-13.545-13.846-27.692-17.759-42.742h-43.344v-82.775h43.344c3.913-15.050 9.933-29.498 17.759-43.043l-30.702-30.702 58.695-58.695 30.702 30.702c13.545-7.826 27.692-13.846 42.742-17.759v-43.344h82.775v43.344c15.050 3.913 29.498 9.933 42.742 17.759l30.702-30.702 58.695 58.695-30.702 30.401c7.826 13.545 13.846 27.692 17.759 42.742h43.344v82.775h-43.344v0.301zM991.793 486.227h-38.227l-2.107-12.040c-3.612-19.565-10.836-37.625-22.274-53.879l-6.923-10.234 27.090-27.090-16.856-16.856-27.090 27.090-10.234-6.923c-16.254-11.438-34.314-18.963-53.879-22.274l-12.040-2.107v-38.227h-23.779v38.227l-12.040 2.107c-19.565 3.612-37.625 10.836-53.879 22.274l-10.234 6.923-27.090-27.090-16.856 16.856 27.090 27.090-6.923 10.234c-11.438 16.254-18.963 34.314-22.274 53.879l-2.107 12.040h-38.227v23.779h38.227l2.107 12.040c3.612 19.565 10.836 37.625 22.274 53.879l6.923 10.234-27.090 27.090 16.856 16.856 27.090-27.090 10.234 6.923c16.254 11.438 34.314 18.963 53.879 22.274l12.040 2.107v38.528h23.779v-38.227l12.040-2.107c19.565-3.612 37.625-10.836 53.879-22.274l10.234-6.923 27.090 27.090 16.856-16.856-27.090-27.090 6.923-10.234c11.438-16.254 18.963-34.314 22.274-53.879l2.107-12.040h38.227v-24.080z" />
<glyph unicode="&#xe91e;" d="M450.897 247.233c-56.287 0-101.738-45.752-101.738-101.738s45.752-101.738 101.738-101.738c56.287 0 101.738 45.752 101.738 101.738 0.301 55.986-45.451 101.738-101.738 101.738zM450.897 72.955c-39.732 0-72.24 32.508-72.24 72.24s32.508 72.24 72.24 72.24c39.732 0 72.24-32.508 72.24-72.24 0.301-39.732-32.207-72.24-72.24-72.24z" />
<glyph unicode="&#xe91f;" d="M660.092 103.055v84.28h-44.548c-3.913 15.652-10.234 30.401-18.361 44.548l31.605 31.605-59.598 59.598-31.605-31.605c-13.846 8.428-28.896 14.448-44.548 18.361v44.548h-84.28v-44.548c-15.652-3.913-30.401-10.234-44.548-18.361l-31.605 31.605-59.598-59.598 31.605-31.605c-8.428-13.846-14.448-28.896-18.361-44.548h-44.548v-84.28h44.548c3.913-15.652 10.234-30.401 18.361-44.548l-31.605-31.605 59.598-59.598 31.605 31.605c13.846-8.428 28.896-14.448 44.548-18.361v-44.548h84.28v44.548c15.652 3.913 30.401 10.234 44.548 18.361l31.605-31.605 59.598 59.598-31.605 31.605c8.428 13.846 14.448 28.896 18.361 44.548h44.548zM591.464 132.553l-2.107-12.040c-3.612-19.866-11.438-38.528-22.876-55.384l-7.224-10.234 27.692-27.692-17.759-17.759-27.692 27.692-10.234-6.923c-16.856-11.739-35.518-19.264-55.384-22.876l-12.040-2.107v-39.13h-25.284v39.13l-12.040 2.107c-19.866 3.612-38.528 11.438-55.384 22.876l-10.234 6.923-27.692-27.692-17.759 17.759 27.692 27.692-6.923 10.234c-11.739 16.856-19.264 35.518-22.876 55.384l-2.107 12.040h-39.13v25.284h39.13l2.107 12.040c3.612 19.866 11.438 38.528 22.876 55.384l6.923 10.234-27.692 27.692 17.759 17.759 27.692-27.692 10.234 6.923c16.856 11.739 35.518 19.264 55.384 22.876l12.040 2.107v39.13h25.284v-39.13l12.040-2.107c19.866-3.612 38.528-11.438 55.384-22.876l10.234-6.923 27.692 27.692 17.759-17.759-27.692-27.692 7.224-10.234c11.739-16.856 19.264-35.518 22.876-55.384l2.107-12.040h39.13v-25.284h-39.13z" />
<glyph unicode="&#xe920;" d="M629.39 918.462h29.498v-32.207h-29.498v32.207z" />
<glyph unicode="&#xe921;" d="M866.577 945.251h29.498v-32.207h-29.498v32.207z" />
<glyph unicode="&#xe922;" d="M697.416 772.176h29.498v-32.207h-29.498v32.207z" />
<glyph unicode="&#xe923;" d="M800.056 855.854h29.498v-32.207h-29.498v32.207z" />
<glyph unicode="&#xe924;" d="M973.432 839.901h29.498v-32.207h-29.498v32.207z" />
<glyph unicode="&#xe925;" d="M906.911 261.079h29.498v-32.207h-29.498v32.207z" />
<glyph unicode="&#xe926;" d="M941.225 11.551h29.498v-32.207h-29.498v32.207z" />
<glyph unicode="&#xe927;" d="M724.506 43.758h29.498v-32.207h-29.498v32.207z" />
<glyph unicode="&#xe928;" d="M755.81 209.608h29.498v-32.207h-29.498v32.207z" />
<glyph unicode="&#xe929;" d="M875.607 121.416h29.498v-32.207h-29.498v32.207z" />
<glyph unicode="&#xe92a;" d="M32.809-14.636h29.498v-32.207h-29.498v32.207z" />
<glyph unicode="&#xe92b;" d="M87.29 97.336h29.498v-32.207h-29.498v32.207z" />
<glyph unicode="&#xe92c;" d="M65.016 277.333h29.498v-32.207h-29.498v32.207z" />
<glyph unicode="&#xe92d;" d="M192.038 59.711h29.498v-32.207h-29.498v32.207z" />
<glyph unicode="&#xe92e;" d="M175.784 293.587h29.498v-32.207h-29.498v32.207z" />
<glyph unicode="&#xe92f;" horiz-adv-x="1060" d="M599.749 778.579c-50.81 50.81-118.142 78.553-189.837 78.553s-139.339-28.055-189.837-78.553c-104.738-104.738-104.738-275.249 0-379.987 50.81-50.81 118.142-78.553 189.837-78.553s139.339 28.055 189.837 78.553c50.81 50.81 78.553 118.142 78.553 189.837 0 72.007-28.055 139.339-78.553 190.149zM241.271 757.070c44.888 44.888 104.738 69.825 168.329 69.825s123.441-24.626 168.329-69.825c35.536-35.536 58.292-80.112 66.396-128.74l-83.229-81.671c-7.793 4.364-17.145 6.858-26.808 6.858-19.015 0-35.536-9.663-45.199-24.314l-122.506 38.342c0 0.312 0 0.623 0 0.935 0 29.925-24.314 54.551-54.551 54.551-29.925 0-54.551-24.314-54.551-54.551 0-9.975 2.494-19.015 7.17-27.12l-64.214-66.708c-48.94 91.022-35.224 206.359 40.835 282.418zM558.29 499.278c0-13.092-10.598-24.002-24.002-24.002-13.092 0-24.002 10.598-24.002 24.002 0 13.092 10.598 24.002 24.002 24.002 13.092 0 24.002-10.91 24.002-24.002zM336.034 569.103c0-13.092-10.598-24.002-24.002-24.002-13.092 0-24.002 10.598-24.002 24.002s10.598 24.002 24.002 24.002c13.092 0 24.002-10.91 24.002-24.002zM577.929 420.413c-44.888-44.888-104.738-69.825-168.329-69.825s-123.441 24.626-168.329 69.825c-9.040 9.040-17.145 18.391-24.314 28.367l69.825 72.007c7.481-4.052 16.209-6.234 25.249-6.234 19.015 0 35.536 9.663 45.199 24.314l122.506-38.342c0-0.312 0-0.623 0-0.935 0-29.925 24.314-54.551 54.551-54.551 29.925 0 54.551 24.314 54.551 54.551 0 9.352-2.182 18.080-6.546 25.561l65.149 63.903c0.312-63.903-24.626-123.753-69.514-168.64z" />
<glyph unicode="&#xe930;" horiz-adv-x="1060" d="M274.314 744.913l19.95-23.067c47.381 41.147 114.089 53.928 173.628 33.042l9.975 28.99c-69.825 24.314-148.067 9.352-203.553-38.965z" />
<glyph unicode="&#xe931;" horiz-adv-x="1060" d="M517.143 765.175l-15.898-26.184c8.105-4.988 15.898-10.598 23.067-16.833l19.95 23.067c-8.416 7.481-17.456 14.027-27.12 19.95z" />
<glyph unicode="&#xe932;" horiz-adv-x="1060" d="M446.383 416.672c-34.289-7.17-69.825-4.052-102.244 8.728l-11.222-28.367c24.626-9.975 50.81-14.963 76.995-14.963 14.339 0 28.678 1.559 43.017 4.364l-6.546 30.237z" />
<glyph unicode="&#xe933;" horiz-adv-x="1060" d="M792.704 343.106l-22.132-22.132-55.174 58.915c65.149 95.386 81.047 214.463 47.070 321.383l43.641 42.706c7.793-4.052 16.521-6.546 25.873-6.546 29.925 0 54.551 24.314 54.551 54.551 0 9.040-2.182 17.456-5.923 24.626l93.828 91.646v-47.381h30.549v99.127h-99.127v-30.549h46.135l-92.581-90.711c-8.105 4.676-17.456 7.481-27.431 7.481-29.925 0-54.551-24.314-54.551-54.551 0-9.663 2.494-18.703 6.858-26.496l-33.354-32.731c-18.080 43.017-44.576 83.229-79.489 118.142-144.326 144.326-379.363 144.326-524.001 0-128.429-128.429-142.456-329.176-41.77-473.503l-25.873-26.808c-7.481 4.052-16.209 6.234-25.249 6.234-30.237 0-54.551-24.314-54.551-54.239s24.314-54.551 54.551-54.551 54.551 24.314 54.551 54.551c0 9.975-2.494 19.015-7.17 27.12l22.444 23.379c7.481-8.728 14.963-17.456 23.379-25.561 72.319-72.319 167.082-108.479 261.845-108.479 72.942 0 145.573 21.197 208.229 63.903l55.174-58.915-23.067-23.067 267.456-266.521 142.768 142.768-267.456 266.209zM832.292 815.674c13.092 0 24.002-10.598 24.002-24.002s-10.598-24.002-24.002-24.002c-13.092 0-24.002 10.598-24.002 24.002s10.598 24.002 24.002 24.002zM54.551 278.268c-13.092 0-24.002 10.598-24.002 24.002 0 13.092 10.598 24.002 24.002 24.002 13.092 0 24.002-10.598 24.002-24.002s-10.91-24.002-24.002-24.002zM169.264 348.405c-132.481 132.481-132.481 348.191 0 480.672 66.396 66.396 153.366 99.439 240.336 99.439s173.94-33.042 240.336-99.439c132.481-132.481 132.481-348.191 0-480.672s-348.191-132.481-480.672 0zM642.767 300.712c9.975 8.105 19.638 16.833 28.99 26.184 9.040 9.040 17.456 18.391 25.249 28.055l52.057-55.486-54.239-54.239-52.057 55.486zM917.704-23.165l-224.127 223.503 99.439 99.439 224.127-223.503-99.439-99.439z" />
<glyph unicode="&#xe934;" horiz-adv-x="1060" d="M793.016 255.201l-43.953-43.641 21.509-21.509 22.444 22.132 84.164-84.476 21.82 21.509z" />
<glyph unicode="&#xe935;" horiz-adv-x="1060" d="M903.321 101.464l21.601 21.601 22.703-22.703-21.601-21.601-22.703 22.703z" />
<glyph unicode="&#xe936;" horiz-adv-x="1060" d="M165.835 202.832h30.549v-33.354h-30.549v33.354z" />
<glyph unicode="&#xe937;" glyph-name="down-arrow" d="M962.878 685.346c-12.701 12.701-33.34 12.701-46.040 0l-404.837-405.631-405.631 405.631c-12.701 12.701-33.34 12.701-46.040 0s-12.701-33.34 0-46.040l427.857-427.857c6.35-6.35 14.288-9.526 23.020-9.526 7.938 0 16.67 3.175 23.020 9.526l427.857 427.857c13.495 12.701 13.495 33.34 0.794 46.040z" />
<glyph unicode="&#xe938;" horiz-adv-x="1060" d="M165.835 16.112h30.549v-33.354h-30.549v33.354z" />
<glyph unicode="&#xe939;" horiz-adv-x="1060" d="M417.705 138.618h30.549v-33.354h-30.549v33.354z" />
<glyph unicode="&#xe93a;" horiz-adv-x="1060" d="M855.983 413.555h30.549v-33.354h-30.549v33.354z" />
<glyph unicode="&#xe93b;" horiz-adv-x="1060" d="M890.896 679.14h30.549v-33.354h-30.549v33.354z" />
<glyph unicode="&#xe93c;" horiz-adv-x="1060" d="M992.205 538.555h30.549v-33.354h-30.549v33.354z" />
<glyph unicode="&#xe93d;" d="M15.050 683.683c8.428 0 15.050 6.622 15.050 15.050v110.768c0 8.127 6.622 15.050 15.050 15.050h304.611c0.903-5.719 2.408-11.137 4.816-16.254l-126.42-114.681c-9.030 5.719-19.565 9.331-31.003 9.331-31.304 0-56.889-25.585-56.889-56.889s25.585-56.889 56.889-56.889c31.304 0 56.889 25.585 56.889 56.889 0 9.030-2.107 17.458-6.020 25.284l126.119 114.079c9.030-6.321 20.167-9.933 32.207-9.933 16.254 0 30.702 6.622 40.936 17.458l102.039-60.802c-0.602-3.612-1.204-7.525-1.204-11.438 0-31.304 25.585-56.889 56.889-56.889s56.889 25.585 56.889 56.889c0 8.127-1.806 15.953-4.816 22.876l88.193 80.969h233.576c8.127 0 15.050-6.622 15.050-15.050v-370.831c0-8.428 6.622-15.050 15.050-15.050s15.050 6.622 15.050 15.050v370.831c0 24.682-20.167 45.15-45.15 45.15h-139.965c13.244 10.535 21.973 26.789 21.973 44.849 0 31.304-25.585 56.889-56.889 56.889s-56.889-25.585-56.889-56.889c0-9.632 2.408-18.662 6.622-26.488l-20.167-18.361h-275.113c-8.729 20.468-28.896 34.615-52.374 34.615s-43.645-14.448-52.374-34.615h-308.524c-24.682 0-45.15-20.167-45.15-45.15v-110.768c0-8.428 6.622-15.050 15.050-15.050zM196.854 618.968c-14.749 0-26.789 12.040-26.789 26.789s12.040 26.789 26.789 26.789c14.749 0 26.789-12.040 26.789-26.789s-12.040-26.789-26.789-26.789zM803.969 926.288c14.749 0 26.789-12.040 26.789-26.789s-12.040-26.789-26.789-26.789c-14.749 0-26.789 12.040-26.789 26.789s12.040 26.789 26.789 26.789zM605.009 693.917c-14.749 0-26.789 12.040-26.789 26.789s12.040 26.789 26.789 26.789c14.749 0 26.789-12.040 26.789-26.789s-12.040-26.789-26.789-26.789zM462.335 824.55h238.392l-62.608-57.491c-9.331 6.622-20.769 10.535-33.11 10.535-16.856 0-31.906-7.224-42.14-18.662l-101.437 60.2c0.301 1.806 0.602 3.612 0.903 5.418zM406.048 859.165c14.749 0 26.789-12.040 26.789-26.789s-12.040-26.789-26.789-26.789c-14.749 0-26.789 12.040-26.789 26.789-0.301 14.749 12.040 26.789 26.789 26.789z" />
<glyph unicode="&#xe93e;" d="M143.577 265.895h-113.477v372.637c0 8.428-6.622 15.050-15.050 15.050s-15.050-6.622-15.050-15.050v-496.649c0-24.682 20.167-45.15 45.15-45.15h328.691l-8.428-74.648h-71.638c-8.428 0-15.050-6.622-15.050-15.050v-52.675c0-8.428 6.622-15.050 15.050-15.050h436.148c8.428 0 15.050 6.622 15.050 15.050v52.675c0 8.428-6.622 15.050-15.050 15.050h-71.337l-8.428 74.648h328.691c24.682 0 45.15 20.167 45.15 45.15 0 0 0 108.36 0 108.36s0 0.301 0 0.301v127.925c0 8.428-6.622 15.050-15.050 15.050s-15.050-6.622-15.050-15.050v-112.875h-110.467zM342.537 265.895h-55.986zM455.412 265.895h-82.775zM541.498 265.895h-55.986zM740.459 265.895h-55.986zM853.333 265.895h-82.775zM654.373 265.895h-82.775zM256.451 265.895h-82.775zM715.175-7.412v-22.575h-406.349v22.575h406.349zM395.212 22.387l8.428 74.648h216.419l8.428-74.648h-233.275zM978.85 127.135h-933.7c-8.127 0-15.050 6.622-15.050 15.050v93.31h963.8v-93.31c0-8.428-6.622-15.050-15.050-15.050z" />
<glyph unicode="&#xe93f;" d="M885.239 265.895v478.589c0 8.428-6.622 15.050-15.050 15.050h-112.875c-8.428 0-15.050-6.622-15.050-15.050v-478.589h-55.986v199.563c0 8.428-6.622 15.050-15.050 15.050h-112.875c-8.428 0-15.050-6.622-15.050-15.050v-199.563h-55.986v393.406c0 8.428-6.622 15.050-15.050 15.050h-112.875c-8.428 0-15.050-6.622-15.050-15.050v-207.088c0-8.428 6.622-15.050 15.050-15.050s15.050 6.622 15.050 15.050v68.929h83.076v-254.947h-82.775v126.119c0 8.428-6.622 15.050-15.050 15.050s-15.050-6.622-15.050-15.050v-126.119h-56.287v199.563c0 8.428-6.622 15.050-15.050 15.050h-112.875c-8.428 0-15.050-6.622-15.050-15.050v-199.563h-27.090zM374.443 644.252h83.076v-32.207h-82.775v32.207zM374.443 550.942v31.304h83.076v-31.304h-83.076zM772.364 729.434h82.775v-32.207h-82.775v32.207zM772.364 667.429h82.775v-31.304h-82.775v31.304zM772.364 606.326h82.775v-340.43h-82.775v340.43zM573.404 450.408h82.775v-32.207h-82.775v32.207zM573.404 388.402h82.775v-31.304h-82.775v31.304zM573.404 327.299h82.775v-61.404h-82.775v61.404zM175.483 450.408h82.775v-32.207h-82.775v32.207zM175.483 388.402h82.775v-31.304h-82.775v31.304zM175.483 327.299h82.775v-61.404h-82.775v61.404z" />
<glyph unicode="&#xe940;" glyph-name="gnb_01" horiz-adv-x="864" d="M862.062 636.727l-323.273 323.273h-431.031c-59.297 0-107.758-48.461-107.758-107.758v-808.785c0-59.297 48.461-107.156 107.758-107.156l646.547 0.602c59.297 0 107.758 47.859 107.758 107.156v592.668zM484.91 879.031l296.484-296.484h-296.484v296.484z" />
<glyph unicode="&#xe941;" glyph-name="gnb_02" d="M910.222 960h-796.444c-63.21 0-113.778-51.17-113.778-113.778v-796.444c0-62.608 50.568-113.778 113.778-113.778h796.444c62.608 0 113.778 51.17 113.778 113.778v796.444c0 62.608-51.471 113.778-113.778 113.778zM455.111 504.889h-85.183v28.294h-114.079v-170.667h113.778v28.595h85.183v-56.889c0-31.304-25.585-56.889-56.889-56.889h-170.366c-31.304 0-56.889 25.585-56.889 56.889v227.556c0 31.304 25.585 56.889 56.889 56.889h170.667c31.304 0 56.889-25.585 56.889-56.889v-56.889zM853.333 504.889h-85.183v28.294h-113.778v-170.667h113.778v28.595h85.183v-56.889c0-31.304-25.585-56.889-56.889-56.889h-170.667c-31.304 0-56.889 25.585-56.889 56.889v227.556c0 31.304 25.585 56.889 56.889 56.889h170.667c31.304 0 56.889-25.585 56.889-56.889v-56.889z" />
<glyph unicode="&#xe942;" glyph-name="gnb_03" horiz-adv-x="1237" d="M1154.545 568.364l-1072 391.636-48.364-130.545 969.091-350.545h-865.818c-75.636 0-137.455-61.818-137.455-137.455v-274.909c0-75.636 61.818-137.455 137.455-137.455h962.182c75.636 0 137.455 61.818 137.455 137.455v378.182c0 54.909-34.545 109.818-82.545 123.636zM274.909 135.273h-137.455v137.455h137.455v-137.455zM1099.636 135.273h-687.273v137.455h687.273v-137.455z" />
<glyph unicode="&#xe943;" glyph-name="gnb_04" horiz-adv-x="1099" d="M549.645 485.645c130.222 0 234.593 105.34 234.593 235.562s-104.371 235.562-234.593 235.562-235.562-105.34-235.562-235.562 105.017-235.562 235.562-235.562zM549.645 407.124c-182.892 0-549.645-91.769-549.645-274.661v-196.14h1099.289v196.14c0 182.892-366.753 274.661-549.645 274.661z" />
<glyph unicode="&#xe944;" glyph-name="gnb_05" horiz-adv-x="1052" d="M292.881 876.497l-75.462 75.462c-126.802-96.493-209.996-245.253-217.418-414.115h105.462c8.041 139.791 79.792 262.263 187.419 338.653zM946.373 537.844h105.462c-8.041 168.863-91.235 317.622-217.418 414.115l-74.535-75.462c106.39-76.39 178.759-198.862 186.491-338.653zM842.457 511.555c0 162.059-86.596 297.52-237.521 333.395v35.876c0 43.917-35.257 79.174-79.174 79.174s-79.174-35.257-79.174-79.174v-35.876c-151.234-35.876-237.212-171.027-237.212-333.395v-263.809l-105.462-105.462v-52.886h844.004v52.886l-105.462 105.462v263.809zM526.072-68.948c7.423 0 14.227 0.619 21.031 2.165 34.329 7.423 62.164 30.618 76.081 62.164 5.258 12.68 8.041 26.288 8.041 41.133h-210.924c0.309-57.834 47.009-105.462 105.771-105.462z" />
<glyph unicode="&#xe945;" glyph-name="gnb_06" horiz-adv-x="1091" d="M965.009 954.87h-839.654c-68.929 0-125.355-56.426-125.355-125.355v-536.686c0-68.929 56.426-125.355 125.355-125.355h710.452l254.878-230.833v892.874c0 68.929-56.426 125.355-125.676 125.355zM580.929 300.203h-84.959v84.959h84.959v-84.959zM685.125 689.092c0-17.633-2.244-33.343-7.053-47.449s-10.58-26.289-17.312-36.869c-6.733-10.259-16.030-22.763-27.572-37.19s-20.839-26.93-27.892-37.51c-7.053-10.58-12.824-23.083-17.633-37.51s-7.053-30.778-7.053-49.052h-84.639c0 22.763 2.885 42.961 8.336 60.914s12.183 33.022 20.198 45.525c8.015 12.503 18.274 26.93 31.098 43.281 9.939 12.503 17.633 23.083 23.404 31.098s10.259 17.312 13.786 27.572c3.527 9.939 5.45 20.839 5.45 32.381v0c0 18.595-4.488 32.701-13.786 42.64s-22.121 15.068-38.793 15.068c-16.671 0-29.816-6.091-39.113-17.954s-14.106-28.854-14.106-50.655v-0.321h-86.883v0.321c0.962 31.098 7.053 58.029 18.595 80.15 11.221 22.121 27.251 39.113 47.77 50.655s44.884 17.312 73.097 17.312c29.495 0 54.502-5.13 75.662-15.709 21.16-10.259 37.19-25.648 48.090-45.205 10.9-19.877 16.351-43.602 16.351-71.494v0z" />
<glyph unicode="&#xe946;" glyph-name="gnb_07" horiz-adv-x="1091" d="M0 831.76v-892.874l254.878 230.833h710.131c68.929 0 125.355 56.426 125.355 125.355v536.686c0 68.929-56.426 125.355-125.355 125.355h-839.654c-68.929 0-125.355-56.426-125.355-125.355zM503.023 387.406h84.639v-84.959h-84.639v84.959zM503.023 818.615h84.639v-373.18h-84.639v373.18z" />
<glyph unicode="&#xe947;" glyph-name="gnb_logout" d="M793.133 696.024c-18.060 18.060-47.558 18.060-65.919 0-18.060-18.060-18.060-47.558 0-65.919l137.858-137.858h-570.394c-25.585 0-46.655-20.769-46.655-46.655s20.769-46.655 46.655-46.655h570.093l-137.557-137.256c-18.060-18.060-18.060-47.558 0-65.919 9.030-9.030 21.070-13.545 32.809-13.545 12.040 0 23.779 4.515 32.809 13.545l217.322 217.322c18.060 18.060 18.060 47.558 0 65.919l-217.021 217.021zM449.994-66.107c25.585 0 46.655 20.769 46.655 46.655 0 25.585-20.769 46.655-46.655 46.655h-356.985v837.38h356.684c25.585 0 46.655 20.769 46.655 46.655 0 25.585-20.769 46.655-46.655 46.655h-403.339c-25.585 0-46.354-21.070-46.354-46.655v-930.69c0-25.585 20.769-46.655 46.655-46.655h403.339z" />
<glyph unicode="&#xe948;" glyph-name="gnb_setting" d="M971.325 555.156l-71.939 12.341c-7.525 24.080-17.157 47.558-28.896 69.832l42.441 59.297c18.060 25.284 15.050 59.598-6.923 81.571l-63.812 63.812c-12.040 12.040-27.692 18.662-44.849 18.662-13.244 0-25.886-4.214-36.722-11.739l-59.598-42.441c-23.177 12.341-47.257 22.274-72.24 29.799l-12.040 71.036c-5.117 30.702-31.304 52.976-62.307 52.976h-89.999c-31.003 0-57.19-22.274-62.307-52.976l-12.341-72.842c-24.080-7.525-47.257-17.458-69.531-29.197l-58.695 41.839c-10.836 7.826-23.478 11.739-36.722 11.739-16.856 0-32.809-6.622-44.849-18.662l-63.812-63.511c-21.672-21.672-24.682-56.287-6.923-81.571l42.742-60.2c-11.739-22.575-21.070-45.752-28.595-69.832l-71.036-12.040c-30.702-5.117-52.976-31.304-52.976-62.307v-89.999c0-31.003 22.274-57.19 52.976-62.307l72.842-12.341c7.525-24.080 17.458-47.257 29.197-69.531l-42.14-58.695c-18.060-25.284-15.050-59.598 6.923-81.571l63.812-63.812c12.040-12.040 27.692-18.662 44.849-18.662 13.244 0 25.886 4.214 36.722 11.739l60.2 42.742c21.672-11.438 44.247-20.468 67.725-27.692l12.040-71.939c5.117-30.702 31.304-52.976 62.307-52.976h90.3c31.003 0 57.19 22.274 62.307 52.976l12.341 71.939c24.080 7.525 47.558 17.157 69.832 28.896l59.297-42.441c10.836-7.826 23.478-11.739 36.722-11.739v0c16.856 0 32.809 6.622 44.849 18.662l63.812 63.812c21.672 21.672 24.682 56.287 6.923 81.571l-43.043 59.297c11.739 22.575 21.672 45.752 28.896 69.832l71.939 12.040c30.702 5.117 52.976 31.304 52.976 62.307v89.999c0 31.003-22.274 57.19-52.675 62.307zM966.208 402.85c0-2.709-1.806-5.117-4.816-5.418l-89.698-15.050c-11.438-1.806-20.468-10.234-23.177-21.070-8.127-31.304-20.468-61.705-37.324-89.698-5.719-9.933-5.418-21.973 1.204-31.304l52.976-74.347c1.505-2.107 1.204-5.418-0.602-7.224l-63.812-63.812c-1.505-1.505-3.010-1.806-4.214-1.806s-2.408 0.301-3.311 1.204l-74.347 52.976c-9.331 6.622-21.672 6.923-31.304 1.204-27.993-16.555-58.093-29.197-89.698-37.324-11.137-2.709-19.565-12.040-21.070-23.177l-15.050-89.698c-0.301-2.709-2.709-4.816-5.418-4.816h-89.999c-2.709 0-5.117 1.806-5.418 4.816l-15.050 89.698c-1.806 11.438-10.234 20.468-21.070 23.177-30.702 7.826-60.2 20.167-87.591 35.819-4.515 2.709-9.632 3.913-14.448 3.913-5.719 0-11.739-1.806-16.555-5.418l-74.949-53.277c-1.204-0.602-2.107-1.204-3.311-1.204-0.903 0-2.709 0.301-3.913 1.806l-64.113 63.511c-1.806 1.806-2.107 4.816-0.602 7.224l52.675 73.745c6.622 9.331 6.923 21.672 1.204 31.605-16.555 27.692-29.498 58.093-37.625 89.397-3.010 10.836-12.040 19.264-23.177 21.070l-90.601 15.351c-2.709 0.301-4.816 2.709-4.816 5.418v89.999c0 2.709 1.806 5.117 4.816 5.418l89.096 15.050c11.438 1.806 20.468 10.234 23.177 21.371 7.826 31.304 20.167 61.705 36.722 89.698 5.719 9.933 5.117 21.973-1.505 31.304l-52.976 75.551c-1.505 2.107-1.204 5.418 0.602 7.224l63.812 63.812c1.505 1.505 3.010 1.806 4.214 1.806s2.408-0.301 3.311-1.204l73.745-52.675c9.331-6.622 21.672-6.923 31.605-1.204 27.692 16.555 58.093 29.498 89.397 37.625 10.836 3.010 19.264 12.040 21.070 23.177l15.351 90.601c0.301 2.709 2.709 4.816 5.418 4.816h89.999c2.709 0 5.117-1.806 5.418-4.816l15.050-89.096c1.806-11.438 10.234-20.468 21.371-23.177 32.207-8.127 63.21-20.769 91.805-37.625 9.933-5.719 21.973-5.418 31.304 1.204l73.745 52.976c1.204 0.602 2.107 1.204 3.311 1.204 0.903 0 2.709-0.301 4.214-1.806l63.812-64.113c1.806-1.806 2.107-4.816 0.602-7.224l-52.976-74.347c-6.622-9.331-6.923-21.672-1.204-31.304 16.555-27.993 29.197-58.093 37.324-89.698 2.709-11.137 12.040-19.565 23.177-21.070l89.698-15.050c2.709-0.301 4.816-2.709 4.816-5.418l-0.301-90.3zM511.699 668.934c-121.905 0-220.934-99.029-220.934-220.934s99.029-220.934 220.934-220.934 220.934 99.029 220.934 220.934c0 121.905-99.029 220.934-220.934 220.934zM511.699 284.557c-89.999 0-163.142 73.143-163.142 163.142s73.143 163.142 163.142 163.142c89.999 0 163.142-73.143 163.142-163.142 0.301-89.999-72.842-163.142-163.142-163.142z" />
<glyph unicode="&#xe949;" glyph-name="gradestar" horiz-adv-x="1072" d="M534.686 960c-19.85 0-36.549-13.233-41.59-31.823l-105.236-325.474h-346.27c-23.946 0-42.85-20.795-42.85-44.741 0-14.809 7.247-28.042 18.59-35.604 6.932-4.726 279.473-203.855 279.473-203.855s-104.606-321.694-106.496-326.735c-1.575-4.726-2.521-9.767-2.521-15.124 0-24.261 19.535-43.481 43.166-43.481 9.137 0 17.644 2.836 24.891 7.877l279.158 203.225c0 0 272.857-198.814 279.158-203.225 7.247-5.041 15.754-7.877 24.891-7.877 23.946 0 43.481 19.535 43.481 43.481 0 5.356-1.26 10.398-2.836 15.124-1.89 5.041-106.811 326.735-106.811 326.735s272.542 199.129 279.473 203.855c11.028 7.877 18.59 21.11 18.59 35.919 0 23.946-18.59 44.741-42.535 44.741h-346.27l-105.866 325.159c-5.041 18.59-21.74 31.823-41.59 31.823z" />
<glyph unicode="&#xe94a;" glyph-name="info-button" d="M874.070 810.048c-199.951 199.929-524.144 199.951-724.117 0-199.951-199.951-199.929-524.144 0-724.117 199.951-199.907 524.144-199.929 724.117 0 199.929 199.974 199.907 524.144 0 724.117zM578.773 225.375c0-36.887-29.897-66.784-66.784-66.784s-66.784 29.897-66.784 66.784v267.136c0 36.887 29.897 66.784 66.784 66.784s66.784-29.897 66.784-66.784v-267.136zM510.809 606.668c-38.468 0-64.113 27.248-63.311 60.885-0.801 35.262 24.844 61.686 64.090 61.686 39.269 0 64.113-26.446 64.936-61.686-0.022-33.637-25.645-60.885-65.716-60.885z" />
<glyph unicode="&#xe94b;" glyph-name="instagram" d="M610 448c0-54.125-43.875-98-98-98s-98 43.875-98 98 43.875 98 98 98 98-43.875 98-98zM741.188 621.391c-4.711 12.766-12.227 24.32-21.992 33.805-9.484 9.766-21.031 17.281-33.805 21.992-10.359 4.023-25.922 8.813-54.586 10.117-31.008 1.414-40.305 1.719-118.805 1.719-78.508 0-87.805-0.297-118.805-1.711-28.664-1.313-44.234-6.102-54.586-10.125-12.773-4.711-24.328-12.227-33.805-21.992-9.766-9.484-17.281-21.031-22-33.805-4.023-10.359-8.813-25.93-10.117-54.594-1.414-31-1.719-40.297-1.719-118.805 0-78.5 0.305-87.797 1.719-118.805 1.305-28.664 6.094-44.227 10.117-54.586 4.719-12.773 12.227-24.32 21.992-33.805 9.484-9.766 21.031-17.281 33.805-21.992 10.359-4.031 25.93-8.82 54.594-10.125 31-1.414 40.289-1.711 118.797-1.711 78.516 0 87.812 0.297 118.805 1.711 28.664 1.305 44.234 6.094 54.594 10.125 25.641 9.891 45.906 30.156 55.797 55.797 4.023 10.359 8.813 25.922 10.125 54.586 1.414 31.008 1.711 40.305 1.711 118.805 0 78.508-0.297 87.805-1.711 118.805-1.305 28.664-6.094 44.234-10.125 54.594zM512 297.031c-83.383 0-150.977 67.586-150.977 150.969s67.594 150.969 150.977 150.969c83.375 0 150.969-67.586 150.969-150.969s-67.594-150.969-150.969-150.969zM668.938 569.656c-19.484 0-35.281 15.797-35.281 35.281s15.797 35.281 35.281 35.281 35.281-15.797 35.281-35.281c-0.008-19.484-15.797-35.281-35.281-35.281zM512 960c-282.727 0-512-229.273-512-512s229.273-512 512-512 512 229.273 512 512-229.273 512-512 512zM804.227 326.789c-1.422-31.297-6.398-52.664-13.664-71.367-15.273-39.492-46.492-70.711-85.984-85.984-18.695-7.266-40.070-12.234-71.359-13.664-31.352-1.43-41.367-1.773-121.211-1.773-79.852 0-89.859 0.344-121.219 1.773-31.289 1.43-52.664 6.398-71.359 13.664-19.625 7.383-37.391 18.953-52.078 33.914-14.953 14.68-26.523 32.453-33.906 52.070-7.266 18.695-12.242 40.070-13.664 71.359-1.445 31.359-1.781 41.375-1.781 121.219s0.336 89.859 1.773 121.211c1.422 31.297 6.391 52.664 13.656 71.367 7.383 19.617 18.961 37.391 33.922 52.070 14.68 14.961 32.453 26.531 52.070 33.914 18.703 7.266 40.070 12.234 71.367 13.664 31.352 1.43 41.367 1.773 121.211 1.773s89.859-0.344 121.211-1.781c31.297-1.422 52.664-6.391 71.367-13.648 19.617-7.383 37.391-18.961 52.078-33.922 14.953-14.688 26.531-32.453 33.906-52.070 7.273-18.703 12.242-40.070 13.672-71.367 1.43-31.352 1.766-41.367 1.766-121.211s-0.336-89.859-1.773-121.211z" />
<glyph unicode="&#xe94c;" glyph-name="logo" horiz-adv-x="6268" d="M1260.818 106.22c0-60.124-48.76-108.914-108.907-108.914s-108.914 48.782-108.914 108.914c0 60.162 48.76 108.93 108.914 108.93 60.14 0 108.907-48.76 108.907-108.93zM2520.432 820.194l-174.513-651.321c-3.589-13.348-21.677-13.348-25.251 0l-165.866 619.044c-13.651 50.948-52.455 80.726-105.212 80.726h-96.308c-52.757 0-91.561-29.778-105.212-80.726l-165.851-619.044c-3.589-13.348-21.677-13.348-25.258 0l-174.513 651.321c-8.185 30.581-31.482 48.442-63.123 48.442h-114.941l211.847-790.597c13.644-50.948 52.455-80.734 105.204-80.734h96.316c52.735 0 91.546 29.793 105.204 80.734l165.866 619.029c3.589 13.379 21.662 13.379 25.251 0l165.859-619.029c13.659-50.948 52.47-80.734 105.204-80.734h96.323c52.742 0 91.553 29.793 105.197 80.734l211.855 790.597h-114.941c-31.664 0.008-54.953-17.861-63.138-48.442zM846.072 694.373v-522.797c0-102.963-71.277-174.263-174.256-174.263h-380.023c-84.383 0-146.476 47.669-168.32 129.183l-56.308 210.121c-3.513 13.144-5.277 25.985-5.277 38.395 0 62.419 41.779 112.329 108.831 124.14l514.165 90.667v104.553c0 20.594-14.257 34.859-34.859 34.859h-500.999l24.372 90.97c8.192 30.581 31.474 48.442 63.115 48.442h435.294c102.986 0 174.263-71.285 174.263-174.271zM684.885 437.642l-429.979-75.82c-16.066-2.847-24.948-16.672-20.7-32.504l44.671-166.745c4.376-16.309 16.778-25.834 33.662-25.834h337.479c20.594 0 34.859 14.234 34.859 34.836v266.066zM3652.953 500.636c6.133-22.941 9.207-45.292 9.207-67.658 0-22.358-3.074-44.709-9.207-67.643l-63.993-238.847c-21.843-81.521-83.944-129.183-168.335-129.183h-379.516c-84.391 0-146.491 47.669-168.327 129.183l-63.993 238.847c-6.14 22.926-9.23 45.277-9.23 67.643s3.089 44.709 9.23 67.658l63.993 238.832c21.836 81.529 83.929 129.175 168.327 129.175h379.516c84.391 0 146.499-47.639 168.335-129.175l63.993-238.832zM3493.9 478.089l-60.367 225.309c-4.346 16.309-16.771 25.826-33.662 25.826h-338.025c-16.869 0-29.294-9.517-33.67-25.826l-60.374-225.309c-8.185-30.596-8.185-59.64 0-90.213l60.374-225.309c4.376-16.309 16.801-25.834 33.67-25.834h338.025c16.892 0 29.316 9.525 33.662 25.834l60.367 225.309c8.207 30.573 8.207 59.625 0 90.213zM4475.978 729.224l-24.387 90.97c-8.192 30.581-31.459 48.442-63.138 48.442h-374.292c-103.001 0-174.263-71.285-174.263-174.271v-697.060h102.812c33.458 0 56.642 23.184 56.642 56.642v640.426c0 22.048 12.818 34.859 34.836 34.859h441.791zM5408.281 868.644h-138.859c-29.968 0-52.924-13.25-67.9-39.22l-178.571-309.322c-6.655-11.539-16.869-17.429-30.195-17.429h-216.186v309.337c0 33.458-23.168 56.634-56.626 56.634h-104.561v-871.331h104.561c33.458 0 56.626 23.184 56.626 56.642v309.322h216.186c13.333 0 23.539-5.906 30.195-17.414l178.579-309.322c14.976-25.985 37.933-39.235 67.9-39.235h138.859l-241.489 418.243c-6.421 11.175-6.421 23.683 0 34.859l241.482 418.236zM6139.427 461.303l-447.969 79c-16.074 2.832-24.94 16.657-20.7 32.496l34.995 130.606c4.361 16.309 16.786 25.826 33.655 25.826h448.711l-26.129 97.429c-7.087 26.5-27.28 41.991-54.703 41.991h-388.624c-84.391 0-146.469-47.639-168.304-129.175l-46.178-172.279c-3.566-13.28-5.27-26.273-5.27-38.781 0-62.055 41.915-111.958 108.808-123.769l447.961-78.977c16.044-2.817 24.948-16.695 20.693-32.527l-34.98-130.569c-4.399-16.309-16.824-25.834-33.693-25.834h-469.593l26.114-97.459c7.094-26.492 27.272-41.968 54.703-41.968h409.544c84.406 0 146.491 47.669 168.32 129.183l46.17 172.287c3.551 13.28 5.277 26.273 5.277 38.766 0 62.055-41.923 111.966-108.808 123.754z" />
<glyph unicode="&#xe94d;" glyph-name="magnifying-glass" d="M1015.031-11.778l-248.848 248.848c66.753 76.743 107.168 176.873 107.168 286.311 0 240.901-195.945 436.619-436.619 436.619-240.901 0-436.619-195.945-436.619-436.619s195.945-436.619 436.619-436.619c109.439 0 209.568 40.415 286.311 107.168l248.848-248.848c5.903-5.903 13.85-9.082 21.57-9.082s15.667 2.952 21.57 9.082c11.807 11.807 11.807 31.333 0 43.14zM61.19 523.381c0 207.071 168.472 375.315 375.315 375.315 207.071 0 375.315-168.472 375.315-375.315s-168.245-375.542-375.315-375.542c-206.843 0-375.315 168.472-375.315 375.542z" />
<glyph unicode="&#xe94e;" glyph-name="manual" horiz-adv-x="1335" d="M202.916 960c0 0 0 0 0 0-12.56 0-24.727-5.102-33.754-13.737-9.027-9.027-14.13-21.194-14.13-33.754v-716.29c0-26.297 21.587-47.883 47.883-47.883 111.074-0.392 297.506-23.549 425.849-157.78v749.651c0 9.027-2.355 17.269-6.672 24.334-105.187 169.555-307.71 195.066-419.177 195.459zM1177.070 195.827v716.29c0 12.952-5.102 24.727-14.13 33.754s-20.802 14.13-33.361 14.13c0 0 0 0 0 0-111.466-0.392-313.99-25.904-419.569-195.851-4.317-7.065-6.672-15.307-6.672-24.334v-749.651c128.343 134.623 314.775 157.78 425.849 157.78 26.297 0.392 47.883 21.587 47.883 47.883zM1285.789 794.763h-34.539v-598.936c0-67.115-54.556-121.671-121.671-122.064-94.197-0.392-250.015-18.839-359.911-122.849 190.356 46.706 391.31 16.484 505.916-9.812 14.13-3.14 29.044 0 40.426 9.42 11.382 9.027 18.054 22.764 18.054 37.286v759.071c-0.392 26.297-21.979 47.883-48.276 47.883zM80.852 195.827v598.936h-34.539c-26.297 0-47.883-21.587-47.883-47.883v-759.071c0-14.522 6.672-28.259 18.054-37.286s26.297-12.56 40.426-9.42c114.606 25.904 315.167 56.518 505.916 9.812-110.289 104.402-265.714 122.849-359.911 122.849-67.115 0.392-122.064 54.948-122.064 122.064z" />
<glyph unicode="&#xe94f;" glyph-name="notification" horiz-adv-x="907" d="M794.036 311.045v169.162c0 173.075-92.407 318.156-254.044 356.684v38.528c0 46.956-37.926 84.581-84.581 84.581s-84.581-37.926-84.581-84.581v-38.227c-161.938-38.227-254.044-182.707-254.044-356.684v-169.162l-112.875-113.176v-56.287h902.697v56.287l-112.574 112.875zM455.412-64c83.979 0 152.607 68.628 152.607 152.607h-305.213c0-83.979 68.026-152.607 152.607-152.607z" />
<glyph unicode="&#xe950;" d="M834.972 376.061l-728.72-161.637 180.299-104.146 43.946-167.055 98.728 84.581 125.216-72.24z" />
<glyph unicode="&#xe951;" d="M314.845 94.326l709.155 608.32-647.149-444.877z" />
<glyph unicode="&#xe952;" d="M1024 702.646l-770.859-373.54-253.141 146.286z" />
<glyph unicode="&#xe953;" d="M1024 702.646l-647.149-444.877 253.141-145.985z" />
<glyph unicode="&#xe954;" d="M376.851 257.768l647.149 444.877-770.859-373.54 61.705-234.78z" />
<glyph unicode="&#xe955;" d="M242.004 335.727l781.996 366.918-770.859-373.54z" />
<glyph unicode="&#xe956;" d="M376.851 257.768l647.149 444.877-637.216-450.596z" />
<glyph unicode="&#xe957;" d="M508.087 443.184c0 0-2.709-8.127-2.408-10.234s5.719-9.632 6.321-9.933c0.301-0.301 5.117-6.321 10.535-9.331s5.719-4.214 6.321-4.515c0.602 0 1.204 0.301 1.204 0.301s0.903 5.719-1.505 8.428c-2.408 2.709 1.204 6.622 1.204 6.622l-6.020 15.652-15.652 3.010z" />
<glyph unicode="&#xe958;" d="M565.879 268.905c0 0-9.331-2.107-18.662-2.408-9.030-0.301-34.013-5.117-33.411-13.846 0.602-9.030 13.244-21.672 29.498-23.779 16.254-1.806 37.023 2.408 47.558 2.107s18.060 9.933 14.147 19.866c-4.214 9.933-39.13 18.060-39.13 18.060z" />
<glyph unicode="&#xe959;" d="M620.962 292.684c0 0 3.311-5.418 1.505-8.729s-6.622-11.438-21.070-3.612c-14.448 8.127-43.043 19.565-43.043 19.565s-16.254 8.428-15.050 18.361c1.204 9.933 16.254 8.428 16.254 8.428l61.404-34.013z" />
<glyph unicode="&#xe95a;" d="M458.121 650.874c0 0-9.632 0-13.846 1.806s-16.555 6.020-17.458 6.321c-0.903 0.301-7.525 0.903-10.836 2.709 0 0-3.612-1.806-0.602-4.515 2.709-2.709 7.826-3.612 7.826-3.612l4.816-2.709c0 0-9.933-5.117-10.836-5.418s-9.331-6.622-9.933-7.224c-0.903-0.301-4.515-3.311-3.010-5.719 0 0 0-0.602 2.107-0.903 0 0-5.418-2.408-3.913-5.117 1.204-2.709 4.816-1.505 4.816-1.505s1.204-4.816 7.826-1.204c0 0 0.602-5.719 15.050 0.301 0 0 5.719 1.505 9.933 1.204s15.652 2.709 21.672 6.923c5.719 4.214-3.612 18.662-3.612 18.662z" />
<glyph unicode="&#xe95b;" d="M439.76 625.289c4.214-0.301 15.652 2.709 21.672 6.923 4.214 3.010 1.204 10.234-1.204 14.749-3.010 1.505-5.418 2.408-5.418 2.408s0.301-14.147 0-16.254c-0.301-2.107-12.943-4.515-21.070-5.719s-18.963-4.214-18.963-4.214c0.602-1.204 3.311-4.214 14.749 0.903 0.301 0 6.020 1.505 10.234 1.204z" />
<glyph unicode="&#xe95c;" d="M570.093 677.964c0 0-20.167-3.612-26.789-5.719s-64.113-13.545-85.183-18.662c-1.204-0.301-2.408-1.505-2.709-2.709s-0.301-2.408 0-3.612c0.602-2.408 2.709-26.187 14.448-22.274 3.612 1.204 13.846 3.311 21.973 4.515s43.344 3.913 43.344 3.913l59.598 34.013-24.682 10.535z" />
<glyph unicode="&#xe95d;" d="M526.749 435.659c0 0 5.418-65.618 18.361-90.601 13.244-24.983 16.254-70.735 18.963-79.464s11.137-21.070 24.983-23.779c13.846-2.709 16.254 6.321 15.652 11.739s-4.214 14.147-4.214 20.167c0 6.020 1.505 8.729 1.806 11.438 0 0 15.652-4.515 18.361 7.224 0 0-1.204 3.612-1.505 5.117-0.301 1.806 2.408 45.15 3.010 50.267s-1.806 33.712-6.020 47.859c-4.214 14.147-2.107 43.946-2.107 43.946l-45.752 6.622-41.538-10.535z" />
<glyph unicode="&#xe95e;" d="M601.096 435.358c0 0-0.301-10.234-4.816-18.963 0 0-0.602-34.916-4.515-52.374 0 0 5.117-35.217 8.729-46.053 3.612-11.137 2.408-32.508 2.408-32.508s1.806-0.602 4.515-0.903 3.612 42.742 0 50.267c-3.913 7.525-6.020 41.237-4.515 51.471 1.806 10.234 1.806 39.431 3.913 44.548s-2.408 7.826-2.408 7.826l-3.311-3.311z" />
<glyph unicode="&#xe95f;" d="M566.782 677.663c0 0-13.846-9.632-13.244-26.187l10.234 2.107c0-0.301-2.709 18.361 3.010 24.080z" />
<glyph unicode="&#xe960;" d="M567.384 421.211c30.401-1.204 46.956 11.739 46.956 11.739 0.301 4.214 0.301 6.923 0.301 6.923l-45.752 6.622-42.14-11.137c0 0 1.204-12.943 3.311-29.498 7.525-0.903 15.050 16.856 15.050 16.856l20.769-1.505c0.301 0.301-28.896 1.204 1.505 0z" />
<glyph unicode="&#xe961;" d="M532.769 434.455c0 0 65.618-26.789 98.427 22.876 0.903 1.505 1.505 3.010 1.505 4.816v11.739c0 1.505 0.301 3.010 0.602 4.214v0c1.204 3.010 1.505 6.321 0.903 9.331-2.107 13.244-8.127 49.063-9.331 58.996-1.505 12.040 6.020 61.103 17.458 82.173 11.438 20.769-15.652 68.929-15.652 68.929s-6.622 11.137-20.167 7.826c0 0 12.642-9.331 5.418-18.662s-28.595-16.856-28.595-16.856-39.732-19.565-53.578-43.946c0 0-4.816-12.642-5.418-28.595-0.602-16.254 0.602-55.083-0.301-60.501s-3.311-42.14-3.311-43.645c0.301-1.806 12.040-58.695 12.040-58.695z" />
<glyph unicode="&#xe962;" d="M552.635 429.037c0 0 40.936 102.942 40.033 140.868-1.204 37.023-58.695-74.046-58.695-74.046l-1.204-61.103c0-0.301 12.341-4.816 19.866-5.719z" />
<glyph unicode="&#xe963;" d="M533.672 551.544c1.505 8.428 2.408 17.157 2.709 25.585 0.301 15.050 5.117 39.732 32.508 34.916 38.528-6.622 21.070-59.899 16.555-68.929-4.515-9.331-21.973-50.869-22.876-53.277-0.903-2.107-28.294-53.879-37.926-66.22-0.903-1.204-2.408-1.204-3.311-0.301-3.913 3.311-12.341 10.836-13.244 15.652-1.505 6.321 4.515 28.595 4.515 28.595s15.953 56.287 17.157 58.996c0.602 1.806 1.505 11.137 3.913 24.983z" />
<glyph unicode="&#xe964;" d="M567.685 676.158c0 0-3.010 6.923-10.234 7.826s-11.137 3.010-11.739 5.418c-0.602 2.709-0.602 5.719-2.408 9.632s-3.010 13.545-3.010 13.846c0 0.301-5.418 2.107-5.719 4.214-0.301 2.408 2.709 10.836 2.408 11.438s-3.010 6.020-2.709 9.933c0.602 3.913 1.204 9.933 3.311 15.050 2.107 4.816 18.060 35.217 57.19 18.662 39.431-16.555 8.428-49.364 12.040-71.036 0 0 3.311-4.515-3.311-12.341-6.020-6.923-24.983-8.428-35.819-12.642z" />
<glyph unicode="&#xe965;" d="M604.106 689.402c6.622 7.525 3.311 12.341 3.311 12.341-0.602 3.010-0.301 6.321 0.301 9.632l-15.652-2.709c0 0-22.575 20.769-21.070 9.933 1.505-11.137-4.214-12.943-4.214-12.943l4.515-6.020c1.204-1.505 0.301-3.311-0.602-5.117-6.923-11.137-22.575-7.525-22.575-7.525 2.107-1.204 5.117-2.408 9.632-2.709 7.224-0.903 10.234-7.826 10.234-7.826 10.535 3.913 29.498 5.418 36.12 12.943z" />
<glyph unicode="&#xe966;" d="M536.381 765.554c0 0-3.010-8.127 1.505-11.438 4.515-3.612 8.428-6.923 8.428-6.923l-0.301-10.234c0-1.505 0.301-3.010 1.204-4.214l5.418-8.729c1.204-1.806 1.505-3.612 1.505-5.719v-4.214c0-1.204 0.903-2.408 2.107-2.408l1.505-0.301c1.204-0.301 2.408 0.903 2.709 2.107l0.602 5.719c0 0 3.010 4.515 9.331-1.204l5.719-2.408c1.505-0.602 3.010-2.107 3.311-3.612 1.505-4.515 4.816-13.244 7.525-14.749 3.612-2.107 17.157 4.816 19.264 7.826 1.806 3.010 6.923 23.779 9.933 33.411 3.010 9.933 1.806 34.314-27.391 40.936-29.197 7.224-48.16-4.816-52.374-13.846z" />
<glyph unicode="&#xe967;" d="M606.514 705.053c1.806 3.010 6.923 23.779 9.933 33.411 0 0-11.438-7.224-26.187-9.331s-43.946 15.050-43.946 15.050v-7.525c0-1.505 0.301-3.010 1.204-4.214l5.418-8.729c1.204-1.806 1.505-3.612 1.505-5.719v-4.214c0-1.204 0.903-2.408 2.107-2.408l1.505-0.301c1.204-0.301 2.408 0.903 2.709 2.107l0.602 5.719c0 0 3.010 4.515 9.331-1.204l8.428-3.612c0 0 4.816-15.351 8.428-17.458 3.311-1.204 16.856 5.418 18.963 8.428z" />
<glyph unicode="&#xe968;" d="M606.815 704.15c0 0 11.137-7.224 5.418-16.856-6.020-9.933-47.558-26.789-49.665-29.498 0 0-1.505 14.749 4.214 19.866 0 0 31.605 5.719 36.722 13.545s3.311 12.943 3.311 12.943z" />
<glyph unicode="&#xe969;" d="M606.815 704.15c0 0 1.806-5.117-3.311-13.244-3.913-6.020-22.876-10.535-31.906-12.642v0c0 0 3.311-1.806 8.729-11.438 12.943 6.321 28.294 14.448 31.906 20.167 6.020 9.933-5.418 17.157-5.418 17.157z" />
<glyph unicode="&#xe96a;" d="M585.745 603.617c9.933-32.508-17.759-81.872-21.672-96.32-4.214-14.448-45.752-81.27-45.752-81.27 1.204-0.903 2.107-1.806 3.010-2.709s2.709-0.602 3.311 0.301c9.632 12.341 37.023 64.113 37.926 66.22 0.903 2.408 18.662 43.946 22.876 53.277 3.612 7.525 15.652 43.344 0.301 60.501z" />
<glyph unicode="&#xe96b;" d="M614.039 672.245c0 0-18.662-10.234-27.692-14.749s-18.963-10.836-18.963-10.836l-3.311 3.311-4.214-9.030c0 0-14.147-8.127-21.070-15.050-6.622-6.923-11.739-15.953-12.642-18.060 0 0 18.060 22.575 31.906 29.197l3.913 1.806 2.107 7.224 3.311-3.612c0 0.301 40.936 23.779 46.655 29.799z" />
<glyph unicode="&#xe96c;" d="M355.781 462.749c0-30.588-42.989-55.384-96.019-55.384s-96.019 24.796-96.019 55.384c0 30.588 42.989 55.384 96.019 55.384s96.019-24.796 96.019-55.384z" />
<glyph unicode="&#xe96d;" d="M316.049 670.138c0 0 6.923-1.204 9.331 0s9.030 2.107 16.856-0.602c7.525-2.709 6.923-2.408 9.933-2.709s7.826-0.602 9.632-1.505c1.505-0.903 4.515-3.010 1.806-6.923s-13.244-0.301-15.050 0c-1.806 0.301-3.612-2.709-2.709-5.418s16.856-20.167 19.264-21.973c2.408-1.806 13.244-9.030 13.545-11.739 0.602-2.709 0-3.311 0-3.311s3.010-2.709 2.107-5.418c-1.204-2.709-6.020 1.505-6.923 0.903 0 0 0.903-3.010-0.301-3.311-1.204-0.602-8.127 2.107-9.030 3.010 0 0-0.903-2.107-4.816 0-3.913 2.408-19.264 10.836-21.070 12.642-1.806 1.505-7.826 7.224-10.234 8.729s-6.622 6.622-8.729 8.428c-2.107 2.107-11.438 6.622-15.050 7.525s11.438 21.672 11.438 21.672z" />
<glyph unicode="&#xe96e;" d="M328.39 638.834c-3.612 6.321-15.351 11.438-15.351 11.438 0.903 5.117 8.127 19.565 8.127 19.565v0c-2.709 0-5.117 0.602-5.117 0.602s-15.351-21.070-11.739-21.672c3.612-0.602 12.943-5.418 15.050-7.525s6.321-6.923 8.729-8.428c2.408-1.505 8.428-6.923 10.234-8.729 1.806-1.505 17.157-10.234 21.070-12.642s4.816 0 4.816 0c0.903-0.903 7.826-3.612 9.030-3.010s0.301 3.311 0.301 3.311-4.816 2.709-9.933 4.515c-4.515 1.806-31.906 16.254-35.217 22.575z" />
<glyph unicode="&#xe96f;" d="M304.912 693.315c0 0 1.505-7.826 0.903-14.147s-13.244 2.107-12.943 3.010c0.602 1.204 6.020 10.836 6.020 10.836l6.020 0.301z" />
<glyph unicode="&#xe970;" d="M248.927 885.352c0 0 7.224 0.301 15.652-13.846 8.428-13.545 22.876-62.307 30.702-81.27 0.602-1.806 1.204-3.311 1.505-5.117 2.408-14.448 14.147-83.377 14.749-91.504 0 0-9.030-6.020-14.749-7.525l-12.642 4.214-12.341 124.614-20.167 65.618-2.709 4.816z" />
<glyph unicode="&#xe971;" d="M208.894 475.692c0 0-2.408-11.438-1.204-13.846 1.204-2.107 16.254-19.264 17.759-21.371 1.505-2.408 9.331-16.254 23.478-19.565s23.779-2.408 25.886 4.214c1.806 6.622-6.321 17.759-10.234 21.371s-20.167 22.876-23.177 25.585c-3.010 2.709-7.224 3.311-7.224 3.311l-18.361-3.311-6.923 3.612z" />
<glyph unicode="&#xe972;" d="M266.384 510.006c0 0 14.147-5.418 21.672-7.224s24.983-15.050 24.983-21.672c-0.301-6.622-9.030-11.137-17.759-10.535s-19.264 6.321-21.070 7.826c-1.806 1.505-7.826 4.816-15.050 6.923s-18.963 3.311-20.769 7.224c-1.806 3.913-2.107 11.739-2.107 11.739l30.1 5.719z" />
<glyph unicode="&#xe973;" d="M234.178 512.414c0 0.602 0.602 1.806 0.602 2.408 0.602 3.612 0 17.759 0 17.759l-3.010-4.214c0 0 2.107-14.147 6.321-36.421 1.204-5.719 3.913-11.438 4.515-14.749 1.204-9.632-4.515-11.438-4.515-11.438-11.438-8.729-21.371-3.311-24.983-0.602s-4.816 7.224-9.632 23.177c-4.816 15.953-9.030 49.665-8.127 57.792 0.903 6.923 3.612 26.789 3.311 40.334 0 13.545-10.535 56.588-10.535 56.588l43.043 8.428 29.197 15.050 22.274-3.311c0 0 2.709 9.331 5.719-19.866 3.010-29.799-15.050-82.474-15.050-82.474-4.816-26.187-6.020-56.287-8.729-60.2-2.709-4.214-13.244-13.545-23.177-6.321-1.806 1.505-3.913 2.709-5.117 4.214l-2.107 13.846z" />
<glyph unicode="&#xe974;" d="M231.77 528.367c0 0 14.147 38.528 20.769 75.551 6.622 36.722 18.060 41.839 22.575 48.16 0 0 7.224-3.311 10.836-3.913 0.602 0 0.903 0 1.204 0 3.010 0-15.652-23.478-19.264-29.498-3.311-6.020-22.876-57.792-24.381-65.016s-2.709-57.19-1.204-59.899c1.505-3.010-5.418 2.107-5.418 2.107s-3.612 10.836-5.117 32.508z" />
<glyph unicode="&#xe975;" d="M268.491 665.322l-7.525 1.204-29.197-15.050-43.043-8.428c0 0 10.234-43.043 10.535-56.588 0-13.545-2.408-33.411-3.311-40.334-0.903-7.826 3.311-41.839 8.127-57.792 2.107-6.923 3.612-11.739 4.816-15.050 1.806-9.030 8.729-10.535 8.729-10.535s-16.856 52.073-15.351 82.474c1.505 30.1 5.719 55.083 5.117 60.802 0 0 48.762 15.050 58.093 46.655 1.204 4.816 2.107 9.030 3.010 12.642z" />
<glyph unicode="&#xe976;" d="M183.911 878.73c0 0-3.612-3.010-4.214-6.020s-5.117-13.545-5.117-13.545-20.468-27.090-24.080-35.518c-3.612-8.428-4.816-14.448-4.816-14.448l54.18-66.521c0 0-18.963-65.317-13.545-89.096 5.418-24.080 12.341-33.11 20.769-35.518 8.428-2.709 53.879 16.254 57.19 40.033 3.010 23.478 1.806 26.488 1.806 26.488s21.371-5.719 22.575-0.301c1.204 5.418-2.709 44.247-3.913 49.966-1.204 5.418-4.214 66.822-4.214 66.822s-13.244 56.588-13.846 59.297c-0.602 2.709-8.729 24.080-19.264 25.284-10.234 1.204-23.177-15.351-23.177-15.351l-40.334 8.428z" />
<glyph unicode="&#xe977;" d="M186.319 880.536c0 0-2.107-1.505-2.709-3.913s-2.107-6.923 1.505-11.739c3.913-4.816 34.916-30.401 47.558-51.772 12.642-21.672 28.595-45.752 29.799-50.568 0 0 5.719 34.314 0.602 49.966s-21.672 47.558-25.284 49.665c-3.010 2.408-24.381 4.515-24.381 4.515l-27.090 13.846z" />
<glyph unicode="&#xe978;" d="M218.526 846.222c0 0-1.806-2.709-2.107-4.816 0 0-9.030 4.515-12.943 6.321l13.846-9.632c0 0 0.903 5.117 1.505 5.719 0 0 7.826-6.020 9.030-8.729s15.652-39.431 15.652-39.431l7.826-12.642 2.107 3.010-12.642 34.314c0 0-7.224 10.836-7.224 11.137s-4.816 11.739-4.816 11.739l-10.234 3.010z" />
<glyph unicode="&#xe979;" d="M218.526 846.222c0 0 4.515 8.729 13.545 8.127 0 0 2.709-10.535 3.311-15.050 0 0-5.719-2.408-8.127-0.602-2.408 2.408-8.729 7.525-8.729 7.525z" />
<glyph unicode="&#xe97a;" d="M233.877 842.008c0 0 22.876-28.294 31.003-62.307l-1.806-17.458-12.040 21.371c0 0-19.866 49.364-24.381 58.394-4.515 8.729 7.224 0 7.224 0z" />
<glyph unicode="&#xe97b;" d="M195.951 728.531c-1.505-6.020-3.311-13.545-5.117-21.672 0 0 34.013-44.247 67.123-62.307 3.311 4.214 5.418 8.428 6.020 13.244 1.505 12.341 2.107 19.264 2.107 22.575l-38.528 29.197-31.605 18.963z" />
<glyph unicode="&#xe97c;" d="M193.543 793.547c0 0 9.933-13.244 12.341-14.448 2.709-1.204 23.779-38.528 27.993-45.451s15.652-16.856 15.652-16.856l-10.836-0.903-41.839 56.588-3.311 21.070z" />
<glyph unicode="&#xe97d;" d="M199.563 781.808c-4.214 10.836-10.836 20.167-19.565 27.391-9.632 8.127-22.575 16.254-29.197 9.030-12.040-12.642-6.923-36.421 9.632-58.394 16.856-22.575 43.043-54.481 49.364-59.899 6.020-5.117 57.19-43.645 86.387-58.093 2.107-1.204 4.816-0.301 6.020 1.806 3.913 6.622 12.341 20.468 15.351 26.187 0.602 1.204 0.301 2.709-0.903 3.311-10.234 6.923-63.812 41.538-79.765 52.073-2.408 1.505-4.515 3.913-5.719 6.622-4.515 9.030-16.555 31.304-27.090 42.742-1.806 2.107-3.311 4.515-4.515 7.224 0.301-0.301 0 0 0 0z" />
<glyph unicode="&#xe97e;" d="M238.994 873.613l18.662-18.963-4.816-1.806 6.321-3.612c0 0 15.050-35.518 11.739-75.551 0 0 7.525 31.605-8.729 76.153l-5.117 2.408 3.311 1.204-21.371 20.167z" />
<glyph unicode="&#xe97f;" d="M186.018 883.847c0.301-0.602 0.602-1.505 0.602-2.408 0-1.806-0.301-4.515-0.301-5.719 0.301-1.806 12.040-21.672 35.819-21.672 0 0 3.010 4.214 3.311 5.117 0 0 9.632 0.301 13.846 3.913 3.913 3.612 1.505 9.632 1.505 9.632l0.602 7.525c0 0.903 0.602 1.806 1.204 2.408 0.903 0.903 2.107 2.107 2.107 3.010 0.301 0.903-0.301 2.408-0.903 3.612-0.301 0.602-0.301 1.505-0.301 2.408 0.301 1.806 0.301 5.719-0.903 10.836-0.301 1.505-0.301 3.010 0 4.515 0.602 2.408 1.505 5.719 1.505 7.224 0.301 1.806-3.010 7.224-3.311 9.030 0 2.107-3.010 9.030-3.010 9.030s-17.759 33.11-46.655 18.662c-28.896-14.448-13.846-45.451-10.234-54.18 0 0 3.612-7.224 4.214-8.729 0.602-1.806 0-2.709 0.903-4.214z" />
<glyph unicode="&#xe980;" d="M240.499 928.094c0.301-2.408-0.602-4.515-2.408-6.321-3.612-3.010-10.535-8.127-19.565-9.331-6.321-0.903-9.933-1.204-12.040-1.204-1.204 0-2.408-1.204-2.408-2.408 0-2.408-0.301-6.020-0.602-8.428 0-0.903-0.301-1.806-0.903-2.709l-2.107-4.214c-0.602-1.204-1.505-1.806-2.709-1.505h-0.602c-1.204 0-2.408 1.204-2.408 2.408v0.301c-0.602 3.311-2.408 6.321-5.418 7.826-1.505 0.602-3.311 0.903-5.117 0.301-4.816-2.107-3.010-6.923-3.010-6.923s-6.020 7.224-8.729 16.856c-2.709 9.632-2.107 26.789 10.535 36.12 12.341 9.030 28.896 12.642 42.742 3.010 11.438-8.729 14.147-18.361 14.749-23.779z" />
<glyph unicode="&#xe981;" d="M192.941 887.459c-0.602 0.903 0.301-5.719-6.622-6.020 0-1.806-0.301-4.515-0.301-5.719 0.301-1.806 12.040-21.672 35.819-21.672 0 0 3.010 4.214 3.311 5.117 0 0-21.973 10.836-25.886 15.652-3.311 4.816-5.719 12.040-6.321 12.642z" />
<glyph unicode="&#xe982;" d="M232.071 854.65c0 0 6.622-0.602 9.632-2.408 0 0 0.903 3.311-0.903 6.923 0 0 1.806-1.505 1.806-9.331 0 0-9.632 3.010-10.234 3.311l-0.301 1.505z" />
<glyph unicode="&#xe983;" d="M304.912 648.767c0 0-55.685 31.906-74.347 44.548s-71.337 66.22-82.173 86.989c2.709-6.923 6.923-14.147 12.040-21.070 16.856-22.575 43.043-54.481 49.364-59.899 6.020-5.117 57.19-43.645 86.387-58.093 2.107-1.204 4.816-0.301 6.020 1.806 0.903 1.204 1.806 3.010 2.709 4.515 0.301 1.204 0 1.204 0 1.204z" />
<glyph unicode="&#xe984;" d="M177.289 857.359l25.284-36.12 6.622 2.408 0.301-6.923c0 0 30.401-22.575 52.976-69.531 0 0-30.1 48.461-53.879 64.414l-2.107 6.923-5.117-1.204-24.080 40.033z" />
<glyph unicode="&#xe985;" d="M174.881 907.626c-0.301 0-0.602 0.301-0.903 0.301 3.010-7.224 7.224-12.341 7.224-12.341s-2.107 4.816 3.010 6.923c1.806 0.602 3.612 0.301 5.117-0.301 3.010-1.505 5.117-4.515 5.418-7.826v-0.301c0.301-1.204 1.204-2.408 2.408-2.408h0.602c1.204 0 2.408 0.602 2.709 1.505l2.107 4.214c0.301 0.903 0.602 1.806 0.903 2.709 0.301 2.408 0.602 6.020 0.602 8.428 0 0.301-16.856-5.117-29.197-0.903z" />
<glyph unicode="&#xe986;" glyph-name="person" horiz-adv-x="782" d="M389.493 456.729c113.778 0 206.185 111.972 206.185 250.432 0 138.159-30.401 250.432-206.185 250.432-176.085-0.301-206.185-112.273-206.185-250.432 0-138.46 92.106-250.432 206.185-250.432zM778.685 67.838c0 2.107 0 15.953 0 0v0zM778.384 84.393c-3.913 240.8-35.217 309.427-276.016 353.072 0 0-34.013-43.043-112.875-43.043s-112.875 43.043-112.875 43.043c-238.091-43.043-271.501-110.467-276.016-345.246-0.301-19.264-0.602-20.167-0.602-18.060 0-4.214 0-11.739 0-25.284 0 0 57.19-115.584 389.192-115.584s389.192 115.584 389.192 115.584c0 8.729 0 14.749 0 18.662 0.301-1.204 0 1.505 0 16.856z" />
<glyph unicode="&#xe987;" glyph-name="process_01" horiz-adv-x="1065" d="M115.239 604.888h-46.972c66.075 205.739 258.975 355.112 486.635 355.112 281.835 0 510.434-228.599 510.434-510.434s-228.599-510.434-510.434-510.434c-227.66 0-420.56 149.372-486.322 355.112h46.972c64.196-181.001 236.741-310.645 439.349-310.645 257.096 0 465.967 208.871 465.967 465.967s-208.871 465.967-465.967 465.967c-202.921 0-375.467-129.644-439.662-310.645zM657.928 471.799l-204.487 166.283 29.436 33.507 271.188-222.023-270.875-222.023-30.062 32.568 204.487 166.909h-657.615v44.467h657.928z" />
<glyph unicode="&#xe988;" glyph-name="process_02" d="M428.021 255.059l-182.105 214.011-32.508-27.692 213.108-250.131 384.075 407.854-31.003 29.197zM512 960c-282.638 0-512-229.362-512-512s229.362-512 512-512 512 229.362 512 512c0 282.638-229.663 512-512 512zM512-21.258c-258.859 0-469.258 210.399-469.258 469.258 0 259.16 210.098 469.258 469.258 469.258s469.258-210.098 469.258-469.258c0-258.859-210.399-469.258-469.258-469.258z" />
<glyph unicode="&#xe989;" glyph-name="process_03" horiz-adv-x="853" d="M853.333-64h-853.333v1024h597.183l255.85-255.85v-768.15zM554.742 917.258h-512v-938.516h767.85v682.667h-255.85v255.85zM682.667 277.333v-42.742h-512v42.742h512zM682.667 405.258v-42.742h-512v42.742h512zM682.667 533.484v-42.742h-512v42.742h512zM597.183 704.15h195.65l-195.65 195.65v-195.65z" />
<glyph unicode="&#xe98a;" glyph-name="process_04" horiz-adv-x="1362" d="M1248.663 960c30.035 0 58.869-12.014 80.094-33.239s33.239-50.059 33.239-80.094v-794.531c0-30.035-12.014-58.869-33.239-80.094s-50.059-33.239-80.094-33.239h-1135.33c-30.035 0-58.869 12.014-80.094 33.239s-33.239 49.658-33.239 79.693v794.932c0 30.035 12.014 58.869 33.239 80.094s50.059 33.239 80.094 33.239h1135.33zM1305.53 505.868h-1248.663v-454.132c0-31.237 25.23-56.867 56.867-56.867h1135.33c31.237 0 56.867 25.23 56.867 56.867v454.132zM454.132 221.935v-56.867h-283.933v56.867h283.933zM1191.797 335.668v-56.867h-170.199v56.867h170.199zM624.332 335.668v-56.867h-454.132v56.867h454.132zM56.867 676.067v-113.333h1248.663v113.333h-1248.663zM1305.53 732.934v113.733c0 31.237-25.23 56.867-56.867 56.867h-1135.33c-31.237 0-56.867-25.23-56.867-56.867v-113.333h1249.064z" />
<glyph unicode="&#xe98b;" glyph-name="process_05" horiz-adv-x="1117" d="M232.847-17.365h186.212v139.577h-419.058v837.788h1117.27v-837.788h-465.693v-139.577h186.212v-46.635h-604.942v46.635zM465.365 122.212v-139.577h139.577v139.577h-139.577zM1070.635 913.365h-1024v-744.847h1024v744.847z" />
<glyph unicode="&#xe98c;" glyph-name="reload" d="M560.966-61.13c205.414 23.010 370.038 187.215 393.466 392.629 30.749 268.586-178.011 497.218-439.694 500.147v120.487c0 6.694-8.367 10.25-14.015 6.066l-248.086-182.195c-4.184-3.138-4.184-9.204 0-12.342l248.086-182.195c5.648-4.184 14.015-0.418 14.015 6.066v120.278c183.868-2.929 331.13-159.394 318.58-346.4-10.668-160.859-141.823-291.386-302.682-301.636-170.481-10.877-315.442 110.865-341.38 271.933-4.811 29.913-30.958 51.667-61.080 51.667-37.443 0-66.728-33.259-60.871-70.284 36.397-229.469 248.295-401.624 493.662-374.221z" />
<glyph unicode="&#xe98d;" glyph-name="reply" horiz-adv-x="1115" d="M555.745 960c-308.019 0-557.384-212.337-557.384-474.481 0-111.084 43.254-213.32 112.722-286.392l-112.722-261.161 351.273 104.858c441.057-120.586 763.494 151.060 763.494 442.368-0.328 262.472-249.692 474.808-557.384 474.808z" />
<glyph unicode="&#xe98e;" glyph-name="right-arrow-circular-button" d="M512-64c-282.32 0-512 229.68-512 512s229.68 512 512 512 512-229.68 512-512-229.68-512-512-512zM512 925.277c-263.153 0-477.277-214.101-477.277-477.277 0-263.153 214.124-477.277 477.277-477.277 263.199 0 477.277 214.124 477.277 477.277 0 263.176-214.078 477.277-477.277 477.277zM447.716 268.228c-4.445 0-8.889 1.69-12.269 5.093-6.783 6.759-6.783 17.778 0 24.561l157.318 157.503-157.318 157.48c-6.759 6.783-6.759 17.801 0 24.561 6.783 6.783 17.778 6.783 24.561 0l169.563-169.748c6.783-6.783 6.783-17.778 0-24.561l-169.563-169.748c-3.403-3.449-7.847-5.139-12.292-5.139z" />
<glyph unicode="&#xe98f;" glyph-name="security-on" d="M933.769 800.010c-174.73 0-308.591 49.921-421.785 159.99-113.182-110.069-247.037-159.99-421.752-159.99 0-286.641-59.312-697.252 421.75-864.010 481.096 166.755 421.788 577.366 421.788 864.010zM477.044 295.601l-140.515 140.535 62.914 62.911 77.601-77.619 147.495 147.498 62.911-62.911-210.405-210.414z" />
<glyph unicode="&#xe990;" d="M1024 448c0-282.77-229.23-512-512-512s-512 229.23-512 512c0 282.77 229.23 512 512 512s512-229.23 512-512z" />
<glyph unicode="&#xe991;" d="M690.086 448c0-44.522-79.732-155.826-178.086-155.826s-178.086 111.304-178.086 155.826c0 98.356 79.732 178.086 178.086 178.086s178.086-79.73 178.086-178.086z" />
<glyph unicode="&#xe992;" d="M690.086 448c0-98.356-79.732-178.086-178.086-178.086s-178.086 79.73-178.086 178.086z" />
<glyph unicode="&#xe993;" d="M700.884 290.59l47.222 47.222 31.482-31.482-47.222-47.222-31.482 31.482z" />
<glyph unicode="&#xe994;" d="M622.17 211.881l47.222 47.222 31.482-31.482-47.222-47.222-31.482 31.482z" />
<glyph unicode="&#xe995;" d="M795.34 196.166l47.222 47.222 31.482-31.482-47.222-47.222-31.482 31.482z" />
<glyph unicode="&#xe996;" d="M716.627 117.443l47.222 47.222 31.482-31.482-47.222-47.222-31.482 31.482z" />
<glyph unicode="&#xe997;" d="M748.109 243.374l47.222 47.222 31.482-31.482-47.222-47.222-31.482 31.482z" />
<glyph unicode="&#xe998;" d="M669.417 164.666l47.222 47.222 31.482-31.482-47.222-47.222-31.482 31.482z" />
<glyph unicode="&#xe999;" d="M795.355 605.421l-125.925 125.925 31.482 31.482 125.925-125.925-31.482-31.482z" />
<glyph unicode="&#xe99a;" d="M669.427 636.884l-47.222 47.222 31.48 31.48 47.222-47.222-31.48-31.48z" />
<glyph unicode="&#xe99b;" d="M748.12 558.187l-47.222 47.222 31.48 31.48 47.222-47.222-31.48-31.48z" />
<glyph unicode="&#xe99c;" d="M763.83 731.329l-47.222 47.222 31.482 31.482 47.222-47.222-31.482-31.482z" />
<glyph unicode="&#xe99d;" d="M842.566 652.623l-47.222 47.222 31.482 31.482 47.222-47.222-31.482-31.482z" />
<glyph unicode="&#xe99e;" d="M181.445 243.364l125.925-125.925-31.482-31.482-125.925 125.925 31.482 31.482z" />
<glyph unicode="&#xe99f;" d="M307.361 211.899l47.222-47.222-31.48-31.48-47.222 47.222 31.48 31.48z" />
<glyph unicode="&#xe9a0;" d="M228.661 290.593l47.222-47.222-31.482-31.482-47.222 47.222 31.482 31.482z" />
<glyph unicode="&#xe9a1;" d="M275.886 337.817l125.925-125.925-31.482-31.482-125.925 125.925 31.482 31.482z" />
<glyph unicode="&#xe9a2;" d="M307.367 778.56l-125.925-125.925-31.482 31.482 125.925 125.925 31.482-31.482z" />
<glyph unicode="&#xe9a3;" d="M354.574 731.349l-125.925-125.925-31.482 31.482 125.925 125.925 31.482-31.482z" />
<glyph unicode="&#xe9a4;" d="M401.824 684.106l-125.925-125.925-31.48 31.48 125.925 125.925 31.48-31.48z" />
<glyph unicode="&#xe9a5;" glyph-name="tel" d="M205.583 517.23c81.872-161.035 214.011-292.27 374.744-374.744l125.216 125.216c15.351 15.351 38.227 20.468 58.093 13.545 63.812-21.070 132.44-32.508 203.175-32.508 31.304 0 56.889-25.585 56.889-56.889v-198.66c0-31.304-25.585-56.889-56.889-56.889-534.274 0-967.111 432.837-967.111 967.111 0 31.304 25.585 56.889 56.889 56.889h198.961c31.304 0 56.889-25.585 56.889-56.889 0-71.036 11.438-139.363 32.508-203.175 6.321-19.866 1.806-42.14-14.147-58.093l-125.216-124.915z" />
<glyph unicode="&#xe9a6;" glyph-name="Thumbsup" horiz-adv-x="1119" d="M-1.316-57.092h203.287v610.19h-203.287v-610.19zM1117.42 502.111c0 55.92-45.723 101.643-101.643 101.643h-321.049l48.355 232.563 1.645 16.118c0 20.723-8.553 40.131-22.368 53.947l-53.947 53.618-334.864-335.193c-18.75-18.421-29.934-43.749-29.934-71.71v-508.546c0-55.92 45.723-101.643 101.643-101.643h457.889c42.105 0 78.288 25.329 93.42 62.17l153.616 358.548c4.605 11.842 7.237 24.013 7.237 37.171v101.314z" />
<glyph unicode="&#xe9a7;" glyph-name="top-arrow" horiz-adv-x="1450" d="M461.757 471.175c-10.901-10.901-10.901-28.061 0-38.961 10.531-10.899 28.061-10.899 38.568 0l197.548 197.18v-651.514c0-15.196 12.079-27.667 27.273-27.667s27.668 12.471 27.668 27.667v651.516l197.153-197.18c10.901-10.899 28.453-10.899 38.961 0 10.899 10.901 10.899 28.061 0 38.961l-244.316 244.314c-10.531 10.531-28.059 10.531-38.96 0l-243.896-244.315zM268.112 650.041c0-15.198-12.079-27.275-27.273-27.275-15.198 0-27.668 12.079-27.668 27.275v268.079c0 15.196 12.471 27.667 27.668 27.667h969.057c15.198 0 27.275-12.471 27.275-27.667v-268.079c0-15.198-12.079-27.275-27.275-27.275s-27.666 12.079-27.666 27.275v240.804h-914.118v-240.804z" />
<glyph unicode="&#xe9a8;" d="M1024 448c0-282.77-229.23-512-512-512s-512 229.23-512 512c0 282.77 229.23 512 512 512s512-229.23 512-512z" />
<glyph unicode="&#xe9a9;" d="M489.74 448h534.26c0 46.212-6.16 90.98-17.638 133.566h-516.622v-133.566z" />
<glyph unicode="&#xe9aa;" d="M489.74 715.13h459.112c-31.342 51.144-71.416 96.35-118.14 133.566h-340.972v-133.566z" />
<glyph unicode="&#xe9ab;" d="M512-64c120.498 0 231.252 41.648 318.712 111.304h-637.424c87.46-69.656 198.214-111.304 318.712-111.304z" />
<glyph unicode="&#xe9ac;" d="M75.148 180.87h873.704c25.162 41.058 44.676 85.938 57.51 133.566h-988.724c12.834-47.628 32.348-92.508 57.51-133.566z" />
<glyph unicode="&#xe9ad;" d="M237.168 880.044h46.658l-43.4-31.53 16.578-51.018-43.398 31.53-43.398-31.53 14.32 44.074c-38.212-31.83-71.704-69.122-99.304-110.674h14.95l-27.626-20.070c-4.304-7.18-8.432-14.474-12.388-21.876l13.192-40.602-24.612 17.882c-6.118-12.962-11.714-26.216-16.744-39.746l14.534-44.736h53.644l-43.4-31.53 16.578-51.018-43.398 31.53-25.996-18.888c-2.602-20.916-3.958-42.22-3.958-63.842h512c0 282.768 0 316.104 0 512-101.144 0-195.43-29.34-274.832-79.956zM257.004 499.2l-43.398 31.53-43.398-31.53 16.578 51.018-43.4 31.53h53.644l16.576 51.018 16.576-51.018h53.644l-43.4-31.53 16.578-51.018zM240.426 699.366l16.578-51.018-43.398 31.53-43.398-31.53 16.578 51.018-43.4 31.53h53.644l16.576 51.018 16.576-51.018h53.644l-43.4-31.53zM440.656 499.2l-43.398 31.53-43.398-31.53 16.578 51.018-43.4 31.53h53.644l16.576 51.018 16.576-51.018h53.644l-43.4-31.53 16.578-51.018zM424.078 699.366l16.578-51.018-43.398 31.53-43.398-31.53 16.578 51.018-43.4 31.53h53.644l16.576 51.018 16.576-51.018h53.644l-43.4-31.53zM424.078 848.514l16.578-51.018-43.398 31.53-43.398-31.53 16.578 51.018-43.4 31.53h53.644l16.576 51.018 16.576-51.018h53.644l-43.4-31.53z" />
<glyph unicode="&#xe9ae;" glyph-name="write" d="M303.106-3.499l-304.009-61.404 61.404 304.009 242.606-242.606zM363.306 57.002l478.89 478.89-242.606 242.907-478.89-479.191 242.606-242.606zM780.19 959.097l-120.099-120.099 242.907-242.907 120.099 120.4-242.907 242.606z" />
<glyph unicode="&#xe9af;" glyph-name="youtube-symbol" d="M418.703 335.784c76.829 39.839 152.987 79.312 229.847 119.172-77.091 40.227-153.228 79.93-229.847 119.915 0-79.972 0-159.126 0-239.087zM512 960c-282.76 0-512-229.229-512-512s229.24-512 512-512 512 229.229 512 512-229.24 512-512 512zM860.851 277.099c-8.862-38.446-40.311-66.804-78.159-71.025-89.641-10.025-180.36-10.078-270.713-10.025-90.353-0.052-181.093 0-270.755 10.025-37.849 4.222-69.276 32.579-78.117 71.025-12.602 54.767-12.602 114.531-12.602 170.901s0.147 116.155 12.749 170.901c8.841 38.446 40.269 66.814 78.117 71.046 89.662 10.015 180.402 10.067 270.755 10.015 90.332 0.052 181.073 0 270.703-10.015 37.87-4.232 69.318-32.59 78.159-71.046 12.602-54.757 12.498-114.531 12.498-170.901s-0.031-116.144-12.634-170.901z" />
</font>
</defs>
</svg>
