<?xml version="1.0" encoding="utf-8"?>
<!-- Generator: Adobe Illustrator 22.0.1, SVG Export Plug-In . SVG Version: 6.00 Build 0)  -->
<svg version="1.1" id="레이어_1" xmlns="http://www.w3.org/2000/svg" xmlns:xlink="http://www.w3.org/1999/xlink" x="0px"
	 y="0px" viewBox="0 0 340.2 288.4" style="enable-background:new 0 0 340.2 288.4;" xml:space="preserve">
<style type="text/css">
	.st0{fill:url(#SVGID_1_);}
	.st1{fill:url(#SVGID_2_);}
</style>
<g>
	<g>
		<g>
			<linearGradient id="SVGID_1_" gradientUnits="userSpaceOnUse" x1="170.0787" y1="0" x2="170.0787" y2="288.2186">
				<stop  offset="0" style="stop-color:#3C8ACA"/>
				<stop  offset="1" style="stop-color:#34BCED"/>
			</linearGradient>
			<path class="st0" d="M339.5,269.9l-21.1-84.5c-0.3-1.3-0.8-2.5-1.5-3.7c1.2-3.4,1.9-7,1.9-10.7V31.7c0-17.5-14.2-31.7-31.7-31.7
				H53C35.6,0,21.4,14.2,21.4,31.7V171c0,3.8,0.7,7.4,1.9,10.7c-0.7,1.1-1.2,2.4-1.5,3.7L0.4,270.6c-1.1,4.2-0.1,8.7,2.6,12.2
				c2.7,3.4,6.8,5.5,11.2,5.5h311.7c0,0,0,0,0,0c7.8,0,14.2-6.4,14.2-14.2C340.2,272.6,339.9,271.2,339.5,269.9z M206.1,266
				C206.1,266,206,266,206.1,266h-72c-0.8,0-1.6-0.4-2.1-1c-0.5-0.6-0.8-1.5-0.6-2.3l5.6-31.1c0.2-1.3,1.4-2.3,2.8-2.3h60.7
				c1.4,0,2.5,1,2.8,2.3l5.6,30.9c0.1,0.2,0.1,0.5,0.1,0.7C208.9,264.8,207.6,266,206.1,266z M291.1,171c0,1.6-1,3-2.4,3.6H51.4
				c-1.4-0.6-2.4-2-2.4-3.6V31.7c0-2.2,1.8-4,4-4h234.1c2.2,0,4,1.8,4,4L291.1,171L291.1,171z"/>
			<linearGradient id="SVGID_2_" gradientUnits="userSpaceOnUse" x1="170.0811" y1="69.2783" x2="170.0811" y2="128.5352">
				<stop  offset="0" style="stop-color:#3C8ACA"/>
				<stop  offset="1" style="stop-color:#34BCED"/>
			</linearGradient>
			<path class="st1" d="M177.8,95.5l8.9-2.4c1.8-0.5,3-2,3.1-3.9c0.1-1.8-1-3.5-2.7-4.1l-40.9-15.5c-1.5-0.6-3.3-0.2-4.5,1
				c-1.2,1.2-1.5,2.9-1,4.5l15.5,40.9c0.6,1.7,2.3,2.8,4.1,2.7c1.8-0.1,3.4-1.3,3.9-3.1l2.4-8.9l20.7,20.7c1.6,1.6,4.3,1.6,5.9,0
				l5.2-5.2c1.6-1.6,1.6-4.3,0-5.9L177.8,95.5z"/>
		</g>
	</g>
</g>
</svg>
