<?xml version="1.0" encoding="utf-8"?>
<!-- Generator: Adobe Illustrator 22.0.1, SVG Export Plug-In . SVG Version: 6.00 Build 0)  -->
<svg version="1.1" id="레이어_1" xmlns="http://www.w3.org/2000/svg" xmlns:xlink="http://www.w3.org/1999/xlink" x="0px"
	 y="0px" viewBox="0 0 340.2 211.6" style="enable-background:new 0 0 340.2 211.6;" xml:space="preserve">
<style type="text/css">
	.st0{fill:url(#SVGID_1_);}
</style>
<linearGradient id="SVGID_1_" gradientUnits="userSpaceOnUse" x1="170.0787" y1="-9.094947e-13" x2="170.0787" y2="211.621">
	<stop  offset="0" style="stop-color:#C6CDD3"/>
	<stop  offset="1" style="stop-color:#D4DBE2"/>
</linearGradient>
<path class="st0" d="M275.6,82.6c-4.3,0-8.6,0.4-12.8,1.3C259.7,68,249.4,54.5,235,47.2c-14.4-7.3-31.3-7.6-46-0.8
	C175.8,9.8,135.4-9,98.9,4.2S43.5,57.9,56.8,94.4c-32,1-57.3,27.5-56.8,59.5c0.5,32,26.5,57.7,58.5,57.8h217.1
	c35.6,0,64.5-28.9,64.5-64.5S311.3,82.6,275.6,82.6z"/>
</svg>
