<?xml version="1.0" encoding="utf-8"?>
<!-- Generator: Adobe Illustrator 22.0.1, SVG Export Plug-In . SVG Version: 6.00 Build 0)  -->
<svg version="1.1" id="레이어_1" xmlns="http://www.w3.org/2000/svg" xmlns:xlink="http://www.w3.org/1999/xlink" x="0px"
	 y="0px" viewBox="0 0 137.6 340.2" style="enable-background:new 0 0 137.6 340.2;" xml:space="preserve">
<style type="text/css">
	.st0{fill:url(#SVGID_1_);}
</style>
<linearGradient id="SVGID_1_" gradientUnits="userSpaceOnUse" x1="68.8017" y1="1.909939e-11" x2="68.8017" y2="340.1575">
	<stop  offset="0" style="stop-color:#199CA4"/>
	<stop  offset="1" style="stop-color:#44B89E"/>
</linearGradient>
<path class="st0" d="M25.9,42.8C25.9,19.2,45,0,68.6,0s42.8,19.2,42.8,42.8S92.3,85.6,68.6,85.6S25.9,66.4,25.9,42.8z M119.1,101
	H18.5C8,101,0,109.3,0,119.4v30.2v63c0,12.1,9.9,22,22,22c2,0,3.5,1.6,3.5,3.5l6.2,80c0,12.1,9.9,22,22,22h30.2c12.1,0,22-9.9,22-22
	l6.2-80.3c0-2,1.6-3.5,3.5-3.5c12.1,0,22-9.9,22-22v-62.6v-30.2C137.6,109.3,129.3,101,119.1,101z"/>
</svg>
