<?xml version="1.0" encoding="utf-8"?>
<!-- Generator: Adobe Illustrator 22.0.1, SVG Export Plug-In . SVG Version: 6.00 Build 0)  -->
<svg version="1.1" id="레이어_1" xmlns="http://www.w3.org/2000/svg" xmlns:xlink="http://www.w3.org/1999/xlink" x="0px"
	 y="0px" viewBox="0 0 340.2 311.9" style="enable-background:new 0 0 340.2 311.9;" xml:space="preserve">
<style type="text/css">
	.st0{fill:url(#SVGID_1_);}
</style>
<linearGradient id="SVGID_1_" gradientUnits="userSpaceOnUse" x1="170.0787" y1="0" x2="170.0787" y2="311.811">
	<stop  offset="0" style="stop-color:#4BB23A"/>
	<stop  offset="1" style="stop-color:#99CA62"/>
</linearGradient>
<path class="st0" d="M283.5,118.4C283.5,49.6,216.1,0,141.7,0C66.9,0,0,50,0,118.4c0,24.3,8.7,48.1,24.2,66.5
	c0.7,21.6-12.1,52.7-23.5,75.3c30.7-5.5,74.4-17.8,94.2-30C204,256.8,283.5,189.9,283.5,118.4z M78,137.9c-9.8,0-17.7-7.9-17.7-17.7
	s8-17.7,17.7-17.7s17.7,7.9,17.7,17.7S87.7,137.9,78,137.9z M141.7,137.9c-9.8,0-17.7-7.9-17.7-17.7s8-17.7,17.7-17.7
	s17.7,7.9,17.7,17.7S151.5,137.9,141.7,137.9z M205.5,137.9c-9.8,0-17.7-7.9-17.7-17.7s8-17.7,17.7-17.7s17.7,7.9,17.7,17.7
	S215.3,137.9,205.5,137.9z M324.3,262.5c-0.4,14.2,7.9,34.5,15.4,49.3c-20.1-3.7-48.7-11.7-61.7-19.6
	c-47.7,11.6-86.7-4.1-107.3-29.8c64.6-9.4,116.8-50.4,134.5-104.1c21,13.9,34.9,35.3,34.9,60.6C340.2,234.8,334.4,250.4,324.3,262.5
	z"/>
</svg>
