<?xml version="1.0" encoding="utf-8"?>
<!-- Generator: Adobe Illustrator 22.0.1, SVG Export Plug-In . SVG Version: 6.00 Build 0)  -->
<svg version="1.1" id="레이어_1" xmlns="http://www.w3.org/2000/svg" xmlns:xlink="http://www.w3.org/1999/xlink" x="0px" y="0px" viewBox="0 0 340.2 340.2" style="enable-background:new 0 0 340.2 340.2;" xml:space="preserve">
<g>
	<path d="M296.4,0.2h-41.5v41.8h-41.8V0.2h-85.4v41.8H85.9V0.2H43.8C19.7,0.2,0,19.9,0,44v252.4c0,24.1,19.7,43.8,43.8,43.8h252.6
		c24.1,0,43.8-19.7,43.8-43.8V44C340.2,19.9,320.4,0.2,296.4,0.2z M297,296.3H43.2V105.1H297V296.3z"/>
	<rect x="85.9" y="149.4" width="41.8" height="41.8"/>
	<rect x="85.9" y="212.5" width="41.8" height="41.8"/>
	<rect x="149.9" y="149.4" width="41.8" height="41.8"/>
	<rect x="149.9" y="212.5" width="41.8" height="41.8"/>
	<rect x="214" y="149.4" width="41.8" height="41.8"/>
	<rect x="214" y="212.5" width="41.8" height="41.8"/>
</g>
</svg>
