<?xml version="1.0" encoding="utf-8"?>
<!-- Generator: Adobe Illustrator 22.0.1, SVG Export Plug-In . SVG Version: 6.00 Build 0)  -->
<svg version="1.1" id="레이어_1" xmlns="http://www.w3.org/2000/svg" xmlns:xlink="http://www.w3.org/1999/xlink" x="0px"
	 y="0px" viewBox="0 0 340.2 251" style="enable-background:new 0 0 340.2 251;" xml:space="preserve">
<path d="M232.7,107.8c29.7,0,53.5-24,53.5-53.7S262.5,0.3,232.7,0.3S179,24.3,179,54.1S203,107.8,232.7,107.8z M107.4,107.8
	c29.7,0,53.5-24,53.5-53.7S137.1,0.3,107.4,0.3s-53.7,24-53.7,53.7S77.7,107.8,107.4,107.8z M107.4,143.6
	C65.7,143.6,0,164.5,0,206.2V251h214.8v-44.8C214.8,164.5,149.1,143.6,107.4,143.6z M232.7,143.6c-5.2,0-11.1,0.4-17.4,0.9
	c20.8,15,35.3,35.3,35.3,61.8V251h89.5v-44.8C340.2,164.5,274.5,143.6,232.7,143.6z"/>
</svg>
