<?xml version="1.0" encoding="utf-8"?>
<!-- Generator: Adobe Illustrator 22.0.1, SVG Export Plug-In . SVG Version: 6.00 Build 0)  -->
<svg version="1.1" id="레이어_1" xmlns="http://www.w3.org/2000/svg" xmlns:xlink="http://www.w3.org/1999/xlink" x="0px"
	 y="0px" viewBox="0 0 311.9 340.2" style="enable-background:new 0 0 311.9 340.2;" xml:space="preserve">
<g>
	<g>
		<path d="M309.8,58.7c-1.3-1.3-3-2-5.1-2h-68.4l-15.5-37c-2.2-5.5-6.2-10.1-12-14C203.1,1.9,197.2,0,191.3,0h-70.9
			c-5.9,0-11.7,1.9-17.5,5.8c-5.8,3.8-9.7,8.5-12,14l-15.5,37H7.1c-2.1,0-3.8,0.7-5.1,2c-1.3,1.3-2,3-2,5.1V78C0,80,0.7,81.7,2,83
			c1.3,1.3,3,2,5.1,2h21.3v210.8c0,12.3,3.5,22.7,10.4,31.3c6.9,8.6,15.3,13,25,13H248c9.7,0,18.1-4.5,25-13.4
			c6.9-8.9,10.4-19.5,10.4-31.8V85h21.3c2.1,0,3.8-0.7,5.1-2c1.3-1.3,2-3,2-5.1V63.8C311.8,61.7,311.1,60,309.8,58.7z M117.2,30.8
			c1-1.3,2.3-2.1,3.8-2.4h70.2c1.5,0.3,2.7,1.1,3.8,2.4l10.6,25.9h-99.2L117.2,30.8z M255.1,295c0,3.2-0.5,6.2-1.6,9
			c-1,2.7-2.1,4.7-3.2,6c-1.1,1.3-1.9,1.9-2.3,1.9H63.8c-0.4,0-1.2-0.6-2.3-1.9c-1.1-1.3-2.2-3.2-3.2-6c-1-2.7-1.5-5.7-1.5-9V85
			h198.4L255.1,295L255.1,295z"/>
		<path d="M92.1,269.3h14.2c2.1,0,3.8-0.7,5.1-2c1.3-1.3,2-3,2-5.1V134.6c0-2.1-0.7-3.8-2-5.1c-1.3-1.3-3-2-5.1-2H92.1
			c-2.1,0-3.8,0.7-5.1,2c-1.3,1.3-2,3-2,5.1v127.6c0,2.1,0.7,3.8,2,5.1C88.4,268.6,90.1,269.3,92.1,269.3z"/>
		<path d="M148.8,269.3H163c2.1,0,3.8-0.7,5.1-2c1.3-1.3,2-3,2-5.1V134.6c0-2.1-0.7-3.8-2-5.1c-1.3-1.3-3-2-5.1-2h-14.2
			c-2.1,0-3.8,0.7-5.1,2c-1.3,1.3-2,3-2,5.1v127.6c0,2.1,0.7,3.8,2,5.1C145.1,268.6,146.8,269.3,148.8,269.3z"/>
		<path d="M205.5,269.3h14.2c2.1,0,3.8-0.7,5.1-2c1.3-1.3,2-3,2-5.1V134.6c0-2.1-0.7-3.8-2-5.1c-1.3-1.3-3-2-5.1-2h-14.2
			c-2.1,0-3.8,0.7-5.1,2c-1.3,1.3-2,3-2,5.1v127.6c0,2.1,0.7,3.8,2,5.1C201.8,268.6,203.4,269.3,205.5,269.3z"/>
	</g>
</g>
</svg>
