<?xml version="1.0" encoding="utf-8"?>
<!-- Generator: Adobe Illustrator 22.0.1, SVG Export Plug-In . SVG Version: 6.00 Build 0)  -->
<svg version="1.1" id="레이어_1" xmlns="http://www.w3.org/2000/svg" xmlns:xlink="http://www.w3.org/1999/xlink" x="0px"
	 y="0px" viewBox="0 0 340.2 340.2" style="enable-background:new 0 0 340.2 340.2;" xml:space="preserve">
<g>
	<path d="M320.7,195.6c10.8,0,19.4,8.6,19.4,19.4v105.7c0,10.8-8.6,19.4-19.4,19.4H20.1C9.3,340.2,0,331.5,0,320.7V215
		c0-10.8,9.3-19.4,20.1-19.4s19.4,8.6,19.4,19.4v85.6h261.8V215C301.3,204.2,310,195.6,320.7,195.6z"/>
	<path d="M156.8,239.5l-79.1-79.1c-7.9-7.9-7.9-19.4,0-27.3c7.9-7.9,19.4-7.9,27.3,0l46,45.3V19.4C151,8.6,159.7,0,170.4,0
		c10.8,0,19.4,8.6,19.4,19.4v158.9l45.3-45.3c7.9-7.9,20.1-7.9,28,0c7.9,7.9,7.9,19.4,0,27.3l-79.1,79.1c-3.6,3.6-8.6,5.8-13.7,5.8
		S160.4,243.1,156.8,239.5z"/>
</g>
</svg>
