<?xml version="1.0" encoding="utf-8"?>
<!-- Generator: Adobe Illustrator 22.0.1, SVG Export Plug-In . SVG Version: 6.00 Build 0)  -->
<svg version="1.1" id="레이어_1" xmlns="http://www.w3.org/2000/svg" xmlns:xlink="http://www.w3.org/1999/xlink" x="0px"
	 y="0px" viewBox="0 0 308.4 340.2" style="enable-background:new 0 0 308.4 340.2;" xml:space="preserve">
<g>
	<path d="M307.8,77.3c-2.2-20.7-12.3-39.4-28.5-52.4l-9.3-7.5C256.2,6.2,238.9,0,221.1,0c-23.7,0-45.8,10.5-60.7,28.9l-143,176.7
		C4.3,221.8-1.7,242.1,0.4,262.9c2.2,20.7,12.3,39.3,28.5,52.4l9.3,7.5c13.8,11.2,31.2,17.3,49,17.3c2.7,0,5.5-0.1,8.3-0.4
		c20.6-2.2,39.1-12.2,52.1-28.1c0-0.1,0.1-0.1,96.5-119.2c17.2-21.2,13.9-52.5-7.3-69.6l-4.9-3.9c-8.8-7.1-19.8-11-31.1-11
		c-15.1,0-29.1,6.7-38.5,18.3l-96.3,119c-6.3,7.8-5.1,19.2,2.7,25.5c3.2,2.6,7.3,4,11.4,4c5.5,0,10.7-2.5,14.1-6.7l96.3-119
		c2.5-3.1,6.3-4.9,10.3-4.9c3.1,0,5.9,1,8.3,2.9l4.9,3.9c2.7,2.2,4.5,5.4,4.8,8.9c0.4,3.5-0.6,7-2.9,9.7l-96.2,118.9
		c-7.9,9.8-19.8,15.4-32.4,15.4c-9.5,0-18.8-3.3-26.2-9.3l-9.3-7.5c-8.7-7-14.1-17-15.2-28c-1.2-11.1,2-21.9,9.1-30.6l143-176.7
		c7.9-9.8,19.8-15.4,32.4-15.4c9.5,0,18.8,3.3,26.2,9.3l9.3,7.5c17.9,14.5,20.6,40.8,6.2,58.6c-3,3.8-4.4,8.5-3.9,13.3
		c0.5,4.8,2.9,9.2,6.6,12.2c3.2,2.6,7.3,4,11.4,4l0,0c5.5,0,10.7-2.5,14.1-6.7C304,118.4,310,98,307.8,77.3z"/>
</g>
</svg>
