<?xml version="1.0" encoding="utf-8"?>
<!-- Generator: Adobe Illustrator 22.0.1, SVG Export Plug-In . SVG Version: 6.00 Build 0)  -->
<svg version="1.1" id="레이어_1" xmlns="http://www.w3.org/2000/svg" xmlns:xlink="http://www.w3.org/1999/xlink" x="0px"
	 y="0px" viewBox="0 0 340.2 340.2" style="enable-background:new 0 0 340.2 340.2;" xml:space="preserve">
<g>
	<path d="M170.1,0C76.2,0,0,76.2,0,170.1s76.2,170.1,170.1,170.1S340.2,264,340.2,170.1S264,0,170.1,0z M205.5,263.6
		c-8.8,3.5-15.7,6.1-20.9,7.9c-5.2,1.8-11.3,2.7-18.2,2.7c-10.6,0-18.8-2.6-24.7-7.8s-8.8-11.7-8.8-19.7c0-3.1,0.2-6.3,0.6-9.5
		c0.4-3.2,1.2-6.9,2.1-10.9l11-38.7c1-3.7,1.8-7.2,2.5-10.5c0.7-3.3,1-6.3,1-9.1c0-4.9-1-8.4-3.1-10.3c-2.1-1.9-5.9-2.9-11.7-2.9
		c-2.8,0-5.7,0.4-8.7,1.3c-3,0.9-5.5,1.7-7.6,2.5l2.9-11.9c7.2-2.9,14-5.4,20.6-7.5c6.6-2.1,12.7-3.1,18.6-3.1
		c10.5,0,18.6,2.6,24.4,7.6c5.7,5.1,8.6,11.7,8.6,19.8c0,1.7-0.2,4.7-0.6,8.9c-0.4,4.2-1.1,8.1-2.2,11.7l-10.9,38.6
		c-0.9,3.1-1.7,6.6-2.4,10.6c-0.7,4-1.1,7-1.1,9c0,5.1,1.1,8.6,3.4,10.5c2.3,1.9,6.3,2.8,11.9,2.8c2.7,0,5.6-0.5,9-1.4
		c3.3-0.9,5.8-1.7,7.3-2.4L205.5,263.6z M203.5,107c-5.1,4.7-11.2,7.1-18.4,7.1c-7.1,0-13.3-2.4-18.4-7.1
		c-5.1-4.7-7.7-10.5-7.7-17.2c0-6.7,2.6-12.5,7.7-17.2c5.1-4.8,11.3-7.2,18.4-7.2c7.2,0,13.3,2.4,18.4,7.2
		c5.1,4.8,7.6,10.5,7.6,17.2C211.2,96.5,208.6,102.2,203.5,107z"/>
</g>
</svg>
