<?xml version="1.0" encoding="utf-8"?>
<!-- Generator: Adobe Illustrator 22.0.1, SVG Export Plug-In . SVG Version: 6.00 Build 0)  -->
<svg version="1.1" id="레이어_1" xmlns="http://www.w3.org/2000/svg" xmlns:xlink="http://www.w3.org/1999/xlink" x="0px"
	 y="0px" viewBox="0 0 340.2 340.2" style="enable-background:new 0 0 340.2 340.2;" xml:space="preserve">
<path d="M302.4,0H37.8C16.8,0,0,17,0,37.8v264.6c0,20.8,16.8,37.8,37.8,37.8h264.6c20.8,0,37.8-17,37.8-37.8V37.8
	C340.2,17,323.1,0,302.4,0z M151.2,151.2h-28.3v-9.4H85v56.7h37.8V189h28.3v18.9c0,10.4-8.5,18.9-18.9,18.9H75.6
	c-10.4,0-18.9-8.5-18.9-18.9v-75.6c0-10.4,8.5-18.9,18.9-18.9h56.7c10.4,0,18.9,8.5,18.9,18.9V151.2z M283.5,151.2h-28.3v-9.4h-37.8
	v56.7h37.8V189h28.3v18.9c0,10.4-8.5,18.9-18.9,18.9h-56.7c-10.4,0-18.9-8.5-18.9-18.9v-75.6c0-10.4,8.5-18.9,18.9-18.9h56.7
	c10.4,0,18.9,8.5,18.9,18.9V151.2z"/>
</svg>
