<?xml version="1.0" encoding="utf-8"?>
<!-- Generator: Adobe Illustrator 22.0.1, SVG Export Plug-In . SVG Version: 6.00 Build 0)  -->
<svg version="1.1" id="레이어_1" xmlns="http://www.w3.org/2000/svg" xmlns:xlink="http://www.w3.org/1999/xlink" x="0px"
	 y="0px" viewBox="0 0 340.2 340.2" style="enable-background:new 0 0 340.2 340.2;" xml:space="preserve">
<g>
	<path d="M258.7,81.8c-6.4-6.4-16.8-6.4-23.2,0c-6.4,6.4-6.4,16.8,0,23.2l48.6,48.6H82.8c-9.1,0-16.4,7.4-16.4,16.4
		s7.4,16.4,16.4,16.4h201.3l-48.6,48.6c-6.4,6.4-6.4,16.8,0,23.2c3.2,3.2,7.4,4.8,11.6,4.8s8.4-1.6,11.6-4.8l76.7-76.7
		c6.4-6.4,6.4-16.8,0-23.2L258.7,81.8z"/>
	<path d="M158.8,340.2c9.1,0,16.4-7.4,16.4-16.4c0-9.1-7.4-16.4-16.4-16.4H32.9V32.9h125.9c9.1,0,16.4-7.4,16.4-16.4
		S167.9,0,158.8,0H16.4C7.4,0,0,7.4,0,16.4v307.3c0,9.1,7.4,16.4,16.4,16.4H158.8z"/>
</g>
</svg>
