<?xml version="1.0" encoding="utf-8"?>
<!-- Generator: Adobe Illustrator 22.0.1, SVG Export Plug-In . SVG Version: 6.00 Build 0)  -->
<svg version="1.1" id="레이어_1" xmlns="http://www.w3.org/2000/svg" xmlns:xlink="http://www.w3.org/1999/xlink" x="0px"
	 y="0px" viewBox="0 0 340.2 340.2" style="enable-background:new 0 0 340.2 340.2;" xml:space="preserve">
<g>
	<g>
		<path d="M308.5,88.1L286,110.6l-56.2-56.3l22.5-22.5c4.6-4.6,12.6-4.6,17.1,0L308.5,71C313.2,75.7,313.2,83.4,308.5,88.1z
			 M120.5,276.2l-56.2-56.3L209.7,74.4l56.2,56.3L120.5,276.2L120.5,276.2z M51.3,247.1l42.1,42.1l-58.6,16.5L51.3,247.1L51.3,247.1
			z M328.5,50.9l-39.1-39.2c-7.6-7.6-35.2-22.1-57.2,0L34.2,209.9c-1.7,1.7-3,3.8-3.6,6.2L0.7,322.4c-1.4,4.9,0.1,10.2,3.6,13.9
			c3.6,3.7,10.8,4.3,13.9,3.6L124.4,310c2.4-0.6,4.4-1.9,6.2-3.6l197.9-198.2C344.3,92.4,344.3,66.7,328.5,50.9L328.5,50.9z"/>
	</g>
</g>
</svg>
