<?xml version="1.0" encoding="utf-8"?>
<!-- Generator: Adobe Illustrator 22.0.1, SVG Export Plug-In . SVG Version: 6.00 Build 0)  -->
<svg version="1.1" id="레이어_1" xmlns="http://www.w3.org/2000/svg" xmlns:xlink="http://www.w3.org/1999/xlink" x="0px"
	 y="0px" viewBox="0 0 340.2 340.2" style="enable-background:new 0 0 340.2 340.2;" xml:space="preserve">
<g>
	<path d="M319.2,0h-117c-11.6,0-21,9.4-21,21s9.4,21,21,21h66.3L157.9,152.6c-4,4-6.1,9.2-6.1,14.8c0,5.6,2.2,10.9,6.1,14.8
		c4,4,9.2,6.1,14.8,6.1c5.6,0,10.9-2.2,14.8-6.1L298.2,71.6v66.3c0,11.6,9.4,21,21,21s21-9.4,21-21V21C340.2,9.4,330.8,0,319.2,0z"
		/>
	<path d="M241,304.2h-205v-205h108.6l35.9-35.9H18c-9.9,0-18,8-18,18v241c0,9.9,8,18,18,18h241c9.9,0,18-8,18-18V159.7L241,195.6
		V304.2z"/>
</g>
</svg>
