<?xml version="1.0" encoding="utf-8"?>
<!-- Generator: Adobe Illustrator 22.0.1, SVG Export Plug-In . SVG Version: 6.00 Build 0)  -->
<svg version="1.1" id="레이어_1" xmlns="http://www.w3.org/2000/svg" xmlns:xlink="http://www.w3.org/1999/xlink" x="0px"
	 y="0px" viewBox="0 0 340.2 268.3" style="enable-background:new 0 0 340.2 268.3;" xml:space="preserve">
<g>
	<path d="M335.6,0H6.2c-3,0-5.4,2.4-5.4,5.4v257.5c0,3,2.4,5.4,5.4,5.4h329.4c3,0,5.4-2.4,5.4-5.4V5.4C341,2.4,338.6,0,335.6,0z
		 M308.7,225.3l-74.1-76.8c-0.8-0.8-2.2-0.9-3-0.1l-51.4,45.2l-65.7-80.9c-0.4-0.5-1.1-0.8-1.8-0.8c-0.7,0-1.3,0.3-1.7,0.9
		L33.2,217.2V32.3h275.5L308.7,225.3L308.7,225.3z"/>
	<path d="M227.3,110.2c14.6,0,26.4-11.8,26.4-26.4c0-14.6-11.8-26.4-26.4-26.4c-14.6,0-26.4,11.8-26.4,26.4
		C200.8,98.3,212.7,110.2,227.3,110.2z"/>
</g>
</svg>
