<?xml version="1.0" encoding="utf-8"?>
<!-- Generator: Adobe Illustrator 22.0.1, SVG Export Plug-In . SVG Version: 6.00 Build 0)  -->
<svg version="1.1" id="레이어_1" xmlns="http://www.w3.org/2000/svg" xmlns:xlink="http://www.w3.org/1999/xlink" x="0px"
	 y="0px" viewBox="0 0 340.2 340.2" style="enable-background:new 0 0 340.2 340.2;" xml:space="preserve">
<path d="M170.1,0C76.2,0,0,76.2,0,170.1s76.2,170.1,170.1,170.1S340.2,264,340.2,170.1S264,0,170.1,0z M280,259.4
	c-3.7-8.3-11.2-14-26.5-17.6c-32.5-7.5-62.8-14.1-48.1-41.7c44.6-84.2,11.8-129.2-35.3-129.2c-48,0-80,46.8-35.3,129.2
	c15.1,27.8-16.3,34.4-48.1,41.7c-15.4,3.5-22.8,9.3-26.5,17.7c-19.9-24.4-31.9-55.5-31.9-89.4c0-78.2,63.6-141.7,141.7-141.7
	s141.7,63.6,141.7,141.7C311.8,203.9,299.8,235,280,259.4z"/>
</svg>
