<?xml version="1.0" encoding="utf-8"?>
<!-- Generator: Adobe Illustrator 22.0.1, SVG Export Plug-In . SVG Version: 6.00 Build 0)  -->
<svg version="1.1" id="레이어_1" xmlns="http://www.w3.org/2000/svg" xmlns:xlink="http://www.w3.org/1999/xlink" x="0px"
	 y="0px" viewBox="0 0 340.2 306.1" style="enable-background:new 0 0 340.2 306.1;" xml:space="preserve">
<path d="M170.1,68V0H0v306.1h340.2V68H170.1z M68,272.1H34v-34h34V272.1z M68,204.1H34v-34h34V204.1z M68,136.1H34v-34h34V136.1z
	 M68,68H34V34h34V68z M136.1,272.1h-34v-34h34V272.1z M136.1,204.1h-34v-34h34V204.1z M136.1,136.1h-34v-34h34V136.1z M136.1,68h-34
	V34h34V68z M306.1,272.1H170.1v-34h34v-34h-34v-34h34v-34h-34v-34h136.1V272.1z M272.1,136.1h-34v34h34V136.1z M272.1,204.1h-34v34
	h34V204.1z"/>
</svg>
