<?xml version="1.0" encoding="utf-8"?>
<!-- Generator: Adobe Illustrator 22.0.1, SVG Export Plug-In . SVG Version: 6.00 Build 0)  -->
<svg version="1.1" id="레이어_1" xmlns="http://www.w3.org/2000/svg" xmlns:xlink="http://www.w3.org/1999/xlink" x="0px"
	 y="0px" viewBox="0 0 340.2 340.2" style="enable-background:new 0 0 340.2 340.2;" xml:space="preserve">
<path d="M321.3,189H18.9C8.5,189,0,197.5,0,207.9v113.4c0,10.4,8.5,18.9,18.9,18.9h302.4c10.4,0,18.9-8.5,18.9-18.9V207.9
	C340.2,197.5,331.7,189,321.3,189z M75.6,302.4c-20.8,0-37.8-17-37.8-37.8s17-37.8,37.8-37.8s37.8,17,37.8,37.8
	S96.4,302.4,75.6,302.4z M321.3,0H18.9C8.5,0,0,8.5,0,18.9v113.4c0,10.4,8.5,18.9,18.9,18.9h302.4c10.4,0,18.9-8.5,18.9-18.9V18.9
	C340.2,8.5,331.7,0,321.3,0z M75.6,113.4c-20.8,0-37.8-17-37.8-37.8s17-37.8,37.8-37.8s37.8,17,37.8,37.8S96.4,113.4,75.6,113.4z"/>
</svg>
