<?xml version="1.0" encoding="utf-8"?>
<!-- Generator: Adobe Illustrator 22.0.1, SVG Export Plug-In . SVG Version: 6.00 Build 0)  -->
<svg version="1.1" id="레이어_1" xmlns="http://www.w3.org/2000/svg" xmlns:xlink="http://www.w3.org/1999/xlink" x="0px"
	 y="0px" viewBox="0 0 340.2 340.2" style="enable-background:new 0 0 340.2 340.2;" xml:space="preserve">
<path d="M316.4,340.2c-6.3,0-12.3-2.5-16.8-7l-76.3-76.3c0,0,0,0,0,0c0,0,0-0.1-0.1-0.1c-0.2-0.3-0.5-0.6-0.8-0.9l-3.2-3.6l-4,2.7
	c-22.7,15-49.1,22.9-76.3,22.9C62.3,277.7,0,215.4,0,138.9C0,62.3,62.3,0,138.9,0s138.9,62.3,138.9,138.9c0,27.2-7.9,53.6-22.9,76.3
	l-2.7,4l3.6,3.2c0.3,0.3,0.6,0.5,0.9,0.8c0.1,0.1,0.2,0.1,0.2,0.2l76.3,76.3c9.3,9.3,9.3,24.3,0,33.6
	C328.7,337.7,322.8,340.2,316.4,340.2z M138.9,38.8c-55.1,0-100,44.9-100,100c0,55.1,44.9,100,100,100c55.1,0,100-44.9,100-100
	C238.9,83.7,194,38.8,138.9,38.8z"/>
</svg>
