<?xml version="1.0" encoding="utf-8"?>
<!-- Generator: Adobe Illustrator 22.0.1, SVG Export Plug-In . SVG Version: 6.00 Build 0)  -->
<svg version="1.1" id="레이어_1" xmlns="http://www.w3.org/2000/svg" xmlns:xlink="http://www.w3.org/1999/xlink" x="0px"
	 y="0px" viewBox="0 0 340.2 314.1" style="enable-background:new 0 0 340.2 314.1;" xml:space="preserve">
<path d="M338.4,1.3c-1.5-1.3-3.7-1.6-5.5-0.8l-330,153C1.2,154.3,0,156.1,0,158s1.1,3.7,2.8,4.6l93.4,45.7c1.7,0.8,3.8,0.6,5.3-0.5
	l90.8-67.7L121,213.3c-1,1-1.5,2.5-1.4,3.9l7.1,92.2c0.2,2,1.5,3.8,3.5,4.4c0.5,0.2,1.1,0.3,1.6,0.3c1.5,0,2.9-0.6,3.9-1.8
	l49.6-57.3l61.3,29.2c1.3,0.6,2.9,0.7,4.2,0.1c1.4-0.6,2.4-1.7,2.8-3.1L339.9,6.6C340.5,4.7,339.9,2.6,338.4,1.3z"/>
</svg>
