<?xml version="1.0" encoding="utf-8"?>
<!-- Generator: Adobe Illustrator 22.0.1, SVG Export Plug-In . SVG Version: 6.00 Build 0)  -->
<svg version="1.1" id="레이어_1" xmlns="http://www.w3.org/2000/svg" xmlns:xlink="http://www.w3.org/1999/xlink" x="0px"
	 y="0px" viewBox="0 0 340.2 340.2" style="enable-background:new 0 0 340.2 340.2;" xml:space="preserve">
<g>
	<g>
		<path d="M322.7,134.4l-23.9-4.1c-2.5-8-5.7-15.8-9.6-23.2l14.1-19.7c6-8.4,5-19.8-2.3-27.1l-21.2-21.2c-4-4-9.2-6.2-14.9-6.2
			c-4.4,0-8.6,1.4-12.2,3.9L233.1,51c-7.7-4.1-15.7-7.4-24-9.9l-4-23.6C203.4,7.4,194.7,0,184.4,0h-29.9c-10.3,0-19,7.4-20.7,17.6
			l-4.1,24.2c-8,2.5-15.7,5.8-23.1,9.7L87,37.4c-3.6-2.6-7.8-3.9-12.2-3.9c-5.6,0-10.9,2.2-14.9,6.2L38.7,60.8
			c-7.2,7.2-8.2,18.7-2.3,27.1l14.2,20c-3.9,7.5-7,15.2-9.5,23.2l-23.6,4C7.4,136.8,0,145.5,0,155.8v29.9c0,10.3,7.4,19,17.6,20.7
			l24.2,4.1c2.5,8,5.8,15.7,9.7,23.1l-14,19.5c-6,8.4-5,19.8,2.3,27.1l21.2,21.2c4,4,9.2,6.2,14.9,6.2c4.4,0,8.6-1.4,12.2-3.9
			l20-14.2c7.2,3.8,14.7,6.8,22.5,9.2l4,23.9c1.7,10.2,10.4,17.6,20.7,17.6h30c10.3,0,19-7.4,20.7-17.6l4.1-23.9
			c8-2.5,15.8-5.7,23.2-9.6l19.7,14.1c3.6,2.6,7.8,3.9,12.2,3.9l0,0c5.6,0,10.9-2.2,14.9-6.2l21.2-21.2c7.2-7.2,8.2-18.7,2.3-27.1
			l-14.1-19.8c3.9-7.5,7.2-15.2,9.6-23.2l23.9-4c10.2-1.7,17.6-10.4,17.6-20.7v-29.9C340.3,144.8,332.9,136.1,322.7,134.4z
			 M321.1,185c0,0.9-0.6,1.7-1.6,1.8l-29.8,5c-3.8,0.6-6.8,3.4-7.7,7c-2.7,10.4-6.8,20.5-12.4,29.8c-1.9,3.3-1.8,7.3,0.4,10.4
			l17.6,24.7c0.5,0.7,0.4,1.8-0.2,2.4l-21.2,21.2c-0.5,0.5-1,0.6-1.4,0.6c-0.4,0-0.8-0.1-1.1-0.4l-24.7-17.6
			c-3.1-2.2-7.2-2.3-10.4-0.4c-9.3,5.5-19.3,9.7-29.8,12.4c-3.7,0.9-6.5,4-7,7.7l-5,29.8c-0.1,0.9-0.9,1.6-1.8,1.6h-29.9
			c-0.9,0-1.7-0.6-1.8-1.6l-5-29.8c-0.6-3.8-3.4-6.8-7-7.7c-10.2-2.6-20-6.7-29.1-11.9c-1.5-0.9-3.2-1.3-4.8-1.3
			c-1.9,0-3.9,0.6-5.5,1.8l-24.9,17.7c-0.4,0.2-0.7,0.4-1.1,0.4c-0.3,0-0.9-0.1-1.4-0.6l-21.2-21.2c-0.6-0.6-0.7-1.6-0.2-2.4
			L70.6,240c2.2-3.1,2.3-7.2,0.4-10.5c-5.5-9.2-9.8-19.3-12.5-29.7c-1-3.6-4-6.4-7.7-7l-30.1-5.1c-0.9-0.1-1.6-0.9-1.6-1.8v-29.9
			c0-0.9,0.6-1.7,1.6-1.8l29.6-5c3.8-0.6,6.8-3.4,7.7-7.1c2.6-10.4,6.7-20.5,12.2-29.8c1.9-3.3,1.7-7.3-0.5-10.4L52.1,76.8
			c-0.5-0.7-0.4-1.8,0.2-2.4l21.2-21.2c0.5-0.5,1-0.6,1.4-0.6c0.4,0,0.8,0.1,1.1,0.4l24.5,17.5c3.1,2.2,7.2,2.3,10.5,0.4
			c9.2-5.5,19.3-9.8,29.7-12.5c3.6-1,6.4-4,7-7.7l5.1-30.1c0.1-0.9,0.9-1.6,1.8-1.6h29.9c0.9,0,1.7,0.6,1.8,1.6l5,29.6
			c0.6,3.8,3.4,6.8,7.1,7.7c10.7,2.7,21,6.9,30.5,12.5c3.3,1.9,7.3,1.8,10.4-0.4l24.5-17.6c0.4-0.2,0.7-0.4,1.1-0.4
			c0.3,0,0.9,0.1,1.4,0.6l21.2,21.2c0.6,0.6,0.7,1.6,0.2,2.4L270.2,101c-2.2,3.1-2.3,7.2-0.4,10.4c5.5,9.3,9.7,19.3,12.4,29.8
			c0.9,3.7,4,6.5,7.7,7l29.8,5c0.9,0.1,1.6,0.9,1.6,1.8L321.1,185L321.1,185z"/>
		<path d="M170.1,96.6c-40.5,0-73.4,32.9-73.4,73.4s32.9,73.4,73.4,73.4s73.4-32.9,73.4-73.4S210.6,96.6,170.1,96.6z M170.1,224.3
			c-29.9,0-54.2-24.3-54.2-54.2s24.3-54.2,54.2-54.2s54.2,24.3,54.2,54.2S200,224.3,170.1,224.3z"/>
	</g>
</g>
</svg>
