<?xml version="1.0" encoding="utf-8"?>
<!-- Generator: Adobe Illustrator 22.0.1, SVG Export Plug-In . SVG Version: 6.00 Build 0)  -->
<svg version="1.1" id="레이어_1" xmlns="http://www.w3.org/2000/svg" xmlns:xlink="http://www.w3.org/1999/xlink" x="0px"
	 y="0px" viewBox="0 0 294.5 340.2" style="enable-background:new 0 0 294.5 340.2;" xml:space="preserve">
<g>
	<path d="M261.6,0H76.3v35h183.1v213.6h35V32.8C294.4,14.7,279.7,0,261.6,0z"/>
	<path d="M200.6,61H32.8C14.7,61,0,75.7,0,93.8v213.6c0,18.1,14.7,32.7,32.8,32.7h167.8c18.1,0,32.8-14.7,32.8-32.7V93.8
		C233.4,75.7,218.7,61,200.6,61z M198.4,305.2H35V96h163.4V305.2z"/>
	<rect x="68.2" y="145.7" width="97" height="22"/>
	<rect x="68.2" y="189.6" width="97" height="22"/>
	<rect x="68.2" y="233.6" width="97" height="22"/>
</g>
</svg>
