<?xml version="1.0" encoding="utf-8"?>
<!-- Generator: Adobe Illustrator 22.0.1, SVG Export Plug-In . SVG Version: 6.00 Build 0)  -->
<svg version="1.1" id="레이어_1" xmlns="http://www.w3.org/2000/svg" xmlns:xlink="http://www.w3.org/1999/xlink" x="0px"
	 y="0px" viewBox="0 0 340.2 340.2" style="enable-background:new 0 0 340.2 340.2;" xml:space="preserve">
<path d="M170.1,0C76.2,0,0,76.2,0,170.1s76.2,170.1,170.1,170.1S340.2,264,340.2,170.1S264,0,170.1,0z M170.1,51
	c28.2,0,51,22.8,51,51s-22.8,51-51,51s-51-22.8-51-51S141.8,51,170.1,51z M170.1,292.5c-42.5,0-80.1-21.8-102-54.8
	c0.5-33.8,68-52.4,102-52.4c33.8,0,101.5,18.5,102,52.4C250.2,270.8,212.6,292.5,170.1,292.5z"/>
</svg>
